<svg xmlns="http://www.w3.org/2000/svg" xmlns:xlink="http://www.w3.org/1999/xlink" width="2000" zoomAndPan="magnify" viewBox="0 0 1500 1499.999933" height="2000" preserveAspectRatio="xMidYMid meet" version="1.0"><defs><g/><clipPath id="5bddfb9b3f"><path d="M 418.417969 398.128906 L 1081.417969 398.128906 L 1081.417969 1061.128906 L 418.417969 1061.128906 Z M 418.417969 398.128906 " clip-rule="nonzero"/></clipPath><clipPath id="363fe0e453"><path d="M 750 398.128906 C 566.871094 398.128906 418.417969 546.585938 418.417969 729.710938 C 418.417969 912.839844 566.871094 1061.292969 750 1061.292969 C 933.125 1061.292969 1081.582031 912.839844 1081.582031 729.710938 C 1081.582031 546.585938 933.125 398.128906 750 398.128906 Z M 750 398.128906 " clip-rule="nonzero"/></clipPath><clipPath id="112027dca5"><path d="M 534.34375 514.058594 L 965.59375 514.058594 L 965.59375 945.308594 L 534.34375 945.308594 Z M 534.34375 514.058594 " clip-rule="nonzero"/></clipPath><clipPath id="4473863fbd"><path d="M 750 514.058594 C 630.894531 514.058594 534.34375 610.609375 534.34375 729.710938 C 534.34375 848.816406 630.894531 945.367188 750 945.367188 C 869.101562 945.367188 965.652344 848.816406 965.652344 729.710938 C 965.652344 610.609375 869.101562 514.058594 750 514.058594 Z M 750 514.058594 " clip-rule="nonzero"/></clipPath><clipPath id="e979e13e51"><path d="M 150 496 L 1348 496 L 1348 936 L 150 936 Z M 150 496 " clip-rule="nonzero"/></clipPath><clipPath id="c956ba3210"><path d="M 150 671.488281 L 1307.441406 496.445312 L 1347.335938 760.238281 L 189.894531 935.285156 Z M 150 671.488281 " clip-rule="nonzero"/></clipPath><clipPath id="761280e522"><path d="M 0 0.320312 L 1197.359375 0.320312 L 1197.359375 439.519531 L 0 439.519531 Z M 0 0.320312 " clip-rule="nonzero"/></clipPath><clipPath id="9c58584161"><path d="M 0 175.488281 L 1157.441406 0.445312 L 1197.335938 264.238281 L 39.894531 439.285156 Z M 0 175.488281 " clip-rule="nonzero"/></clipPath><clipPath id="05611bb558"><rect x="0" width="1198" y="0" height="440"/></clipPath><clipPath id="a245e49fc7"><rect x="0" width="206" y="0" height="93"/></clipPath><clipPath id="aa162f9780"><rect x="0" width="252" y="0" height="117"/></clipPath><clipPath id="8922dc8196"><rect x="0" width="216" y="0" height="78"/></clipPath></defs><rect x="-150" width="1800" fill="none" y="-149.999993" height="1799.99992" fill-opacity="1"/><g clip-path="url(#5bddfb9b3f)"><g clip-path="url(#363fe0e453)"><path stroke-linecap="butt" transform="matrix(0.75, 0, 0, 0.75, 418.416669, 398.130327)" fill="none" stroke-linejoin="miter" d="M 442.111117 -0.00189474 C 197.939237 -0.00189474 0.00173259 197.940818 0.00173259 442.10749 C 0.00173259 686.27937 197.939237 884.216875 442.111117 884.216875 C 686.277789 884.216875 884.220502 686.27937 884.220502 442.10749 C 884.220502 197.940818 686.277789 -0.00189474 442.111117 -0.00189474 Z M 442.111117 -0.00189474 " stroke="#000000" stroke-width="24" stroke-opacity="1" stroke-miterlimit="4"/></g></g><g clip-path="url(#112027dca5)"><g clip-path="url(#4473863fbd)"><path stroke-linecap="butt" transform="matrix(0.75, 0, 0, 0.75, 534.344339, 514.058024)" fill="none" stroke-linejoin="miter" d="M 287.540906 0.000760037 C 128.7336 0.000760037 -0.000785767 128.735146 -0.000785767 287.537243 C -0.000785767 446.344548 128.7336 575.078935 287.540906 575.078935 C 446.343003 575.078935 575.077389 446.344548 575.077389 287.537243 C 575.077389 128.735146 446.343003 0.000760037 287.540906 0.000760037 Z M 287.540906 0.000760037 " stroke="#000000" stroke-width="24" stroke-opacity="1" stroke-miterlimit="4"/></g></g><g clip-path="url(#e979e13e51)"><g clip-path="url(#c956ba3210)"><g transform="matrix(1, 0, 0, 1, 150, 496)"><g clip-path="url(#05611bb558)"><g clip-path="url(#761280e522)"><g clip-path="url(#9c58584161)"><path fill="#ffffff" d="M 0 175.488281 L 1157.1875 0.480469 L 1197.082031 264.273438 L 39.894531 439.285156 Z M 0 175.488281 " fill-opacity="1" fill-rule="nonzero"/></g></g></g></g></g></g><g fill="#000000" fill-opacity="1"><g transform="translate(148.043894, 873.146277)"><g><path d="M 238.453125 -204.453125 C 239.828125 -204.285156 240.769531 -203.34375 241.28125 -201.625 C 241.789062 -199.90625 241.554688 -198.59375 240.578125 -197.6875 C 237.835938 -195.300781 233.898438 -191.203125 228.765625 -185.390625 C 223.640625 -179.585938 217.878906 -172.789062 211.484375 -165 L 211.515625 -164.8125 C 211.804688 -162.125 211.085938 -159.9375 209.359375 -158.25 C 207.628906 -156.5625 205.9375 -155.835938 204.28125 -156.078125 C 198.132812 -148.328125 191.894531 -140.1875 185.5625 -131.65625 C 179.226562 -123.125 173.242188 -114.738281 167.609375 -106.5 C 161.972656 -98.269531 157.085938 -90.609375 152.953125 -83.515625 C 151.460938 -81.054688 150.46875 -79.226562 149.96875 -78.03125 C 149.46875 -76.84375 149.410156 -75.785156 149.796875 -74.859375 C 150.546875 -73.222656 150.765625 -71.578125 150.453125 -69.921875 C 150.148438 -68.265625 149.335938 -67.335938 148.015625 -67.140625 C 147.148438 -67.003906 145.78125 -67.597656 143.90625 -68.921875 C 142.03125 -70.242188 141.25 -72.738281 141.5625 -76.40625 C 141.769531 -79.164062 143.0625 -82.925781 145.4375 -87.6875 C 147.8125 -92.445312 150.945312 -97.914062 154.84375 -104.09375 C 158.75 -110.269531 163.175781 -116.863281 168.125 -123.875 C 173.082031 -130.894531 178.273438 -137.976562 183.703125 -145.125 C 189.128906 -152.28125 194.441406 -159.171875 199.640625 -165.796875 C 198.222656 -169.429688 195.773438 -172.097656 192.296875 -173.796875 C 188.816406 -175.503906 184.707031 -176 179.96875 -175.28125 C 169.65625 -173.71875 158.789062 -170.484375 147.375 -165.578125 C 135.957031 -160.679688 124.488281 -154.503906 112.96875 -147.046875 C 101.445312 -139.597656 90.320312 -131.148438 79.59375 -121.703125 C 68.875 -112.253906 59.023438 -102.164062 50.046875 -91.4375 C 41.066406 -80.707031 33.34375 -69.671875 26.875 -58.328125 C 20.40625 -46.984375 15.734375 -35.664062 12.859375 -24.375 C 9.984375 -13.09375 9.34375 -2.171875 10.9375 8.390625 C 12.539062 18.929688 16.835938 26.773438 23.828125 31.921875 C 30.816406 37.066406 39.460938 38.859375 49.765625 37.296875 C 63.472656 35.210938 77.257812 31.007812 91.125 24.6875 C 104.988281 18.363281 118.515625 10.628906 131.703125 1.484375 C 144.898438 -7.648438 157.425781 -17.488281 169.28125 -28.03125 C 181.144531 -38.570312 191.875 -49.035156 201.46875 -59.421875 C 202.09375 -60.148438 202.617188 -59.925781 203.046875 -58.75 C 203.472656 -57.570312 203.46875 -55.957031 203.03125 -53.90625 C 202.601562 -51.863281 201.441406 -49.765625 199.546875 -47.609375 C 188.816406 -35.679688 177.128906 -24.378906 164.484375 -13.703125 C 151.835938 -3.035156 138.929688 6.546875 125.765625 15.046875 C 112.597656 23.554688 99.644531 30.578125 86.90625 36.109375 C 74.164062 41.648438 62.273438 45.257812 51.234375 46.9375 C 42.628906 48.25 34.710938 47.59375 27.484375 44.96875 C 20.265625 42.34375 14.300781 38.003906 9.59375 31.953125 C 4.894531 25.898438 1.890625 18.570312 0.578125 9.96875 C -1.148438 -1.4375 -0.515625 -13.195312 2.484375 -25.3125 C 5.484375 -37.4375 10.347656 -49.53125 17.078125 -61.59375 C 23.804688 -73.65625 31.925781 -85.335938 41.4375 -96.640625 C 50.945312 -107.953125 61.367188 -118.5625 72.703125 -128.46875 C 84.046875 -138.382812 95.816406 -147.273438 108.015625 -155.140625 C 120.210938 -163.015625 132.347656 -169.507812 144.421875 -174.625 C 156.492188 -179.75 168.046875 -183.148438 179.078125 -184.828125 C 185.265625 -185.765625 190.882812 -185.5 195.9375 -184.03125 C 201 -182.570312 204.945312 -179.878906 207.78125 -175.953125 C 213.84375 -183.453125 219.210938 -189.976562 223.890625 -195.53125 C 228.566406 -201.082031 231.929688 -204.882812 233.984375 -206.9375 C 234.628906 -207.53125 235.425781 -207.773438 236.375 -207.671875 C 237.320312 -207.566406 238.015625 -206.492188 238.453125 -204.453125 Z M 238.453125 -204.453125 "/></g></g></g><g fill="#000000" fill-opacity="1"><g transform="translate(344.325959, 843.34305)"><g><path d="M 90.046875 -59.0625 C 90.972656 -60.320312 91.71875 -60.3125 92.28125 -59.03125 C 92.84375 -57.757812 92.984375 -56.015625 92.703125 -53.796875 C 92.421875 -51.585938 91.550781 -49.570312 90.09375 -47.75 C 89.5625 -47.164062 88.289062 -45.507812 86.28125 -42.78125 C 84.269531 -40.0625 81.796875 -36.738281 78.859375 -32.8125 C 75.921875 -28.894531 72.722656 -24.8125 69.265625 -20.5625 C 65.816406 -16.320312 62.363281 -12.289062 58.90625 -8.46875 C 55.457031 -4.65625 52.28125 -1.507812 49.375 0.96875 C 46.46875 3.457031 44.101562 4.84375 42.28125 5.125 C 40.101562 5.457031 37.921875 4.546875 35.734375 2.390625 C 33.546875 0.242188 32.296875 -1.859375 31.984375 -3.921875 C 31.390625 -7.796875 31.765625 -12.222656 33.109375 -17.203125 C 34.460938 -22.191406 36.585938 -27.820312 39.484375 -34.09375 C 35.523438 -29.15625 31.441406 -24.195312 27.234375 -19.21875 C 23.035156 -14.238281 19.171875 -10.050781 15.640625 -6.65625 C 12.117188 -3.269531 9.332031 -1.421875 7.28125 -1.109375 C 5.21875 -0.796875 3.015625 -1.578125 0.671875 -3.453125 C -1.660156 -5.328125 -3.070312 -7.90625 -3.5625 -11.1875 C -3.96875 -13.851562 -3.4375 -17.3125 -1.96875 -21.5625 C -0.5 -25.8125 1.59375 -30.40625 4.3125 -35.34375 C 7.03125 -40.289062 10.15625 -45.234375 13.6875 -50.171875 C 17.21875 -55.117188 20.800781 -59.695312 24.4375 -63.90625 C 28.082031 -68.125 31.53125 -71.566406 34.78125 -74.234375 C 38.039062 -76.898438 40.820312 -78.40625 43.125 -78.75 C 46.757812 -79.300781 50.238281 -78.867188 53.5625 -77.453125 C 56.882812 -76.035156 59.25 -74.382812 60.65625 -72.5 C 61.957031 -74.550781 63.34375 -76.648438 64.8125 -78.796875 C 66.28125 -80.941406 67.734375 -82.5625 69.171875 -83.65625 C 70.054688 -84.40625 71.148438 -84.566406 72.453125 -84.140625 C 73.765625 -83.710938 74.992188 -83 76.140625 -82 C 77.285156 -81 78.050781 -80.03125 78.4375 -79.09375 C 78.832031 -78.164062 78.492188 -77.554688 77.421875 -77.265625 C 76.347656 -76.972656 74.570312 -75.148438 72.09375 -71.796875 C 69.625 -68.453125 66.847656 -64.25 63.765625 -59.1875 C 60.691406 -54.125 57.601562 -48.722656 54.5 -42.984375 C 51.40625 -37.242188 48.648438 -31.707031 46.234375 -26.375 C 43.816406 -21.039062 42.144531 -16.535156 41.21875 -12.859375 C 40.300781 -9.179688 40.410156 -6.867188 41.546875 -5.921875 C 42.378906 -5.316406 44.007812 -6.003906 46.4375 -7.984375 C 48.863281 -9.960938 51.753906 -12.757812 55.109375 -16.375 C 58.472656 -19.988281 61.992188 -23.96875 65.671875 -28.3125 C 69.359375 -32.65625 72.894531 -36.941406 76.28125 -41.171875 C 79.664062 -45.410156 82.570312 -49.140625 85 -52.359375 C 87.4375 -55.585938 89.117188 -57.820312 90.046875 -59.0625 Z M 5.625 -12.03125 C 6.34375 -11.394531 7.835938 -11.960938 10.109375 -13.734375 C 12.390625 -15.503906 15.164062 -18.0625 18.4375 -21.40625 C 21.707031 -24.757812 25.164062 -28.507812 28.8125 -32.65625 C 32.46875 -36.8125 35.992188 -40.976562 39.390625 -45.15625 C 42.785156 -49.332031 45.78125 -53.101562 48.375 -56.46875 C 50.96875 -59.84375 52.804688 -62.425781 53.890625 -64.21875 C 53.390625 -65.125 52.203125 -66.207031 50.328125 -67.46875 C 48.460938 -68.738281 46.503906 -69.21875 44.453125 -68.90625 C 42.265625 -68.570312 39.691406 -67.09375 36.734375 -64.46875 C 33.773438 -61.851562 30.679688 -58.535156 27.453125 -54.515625 C 24.222656 -50.492188 21.148438 -46.210938 18.234375 -41.671875 C 15.328125 -37.128906 12.765625 -32.765625 10.546875 -28.578125 C 8.328125 -24.398438 6.726562 -20.8125 5.75 -17.8125 C 4.78125 -14.8125 4.738281 -12.882812 5.625 -12.03125 Z M 5.625 -12.03125 "/></g></g></g><g fill="#000000" fill-opacity="1"><g transform="translate(420.72862, 831.742164)"><g><path d="M 122.796875 -64.046875 C 123.710938 -65.296875 124.484375 -65.285156 125.109375 -64.015625 C 125.742188 -62.753906 125.945312 -61.019531 125.71875 -58.8125 C 125.5 -56.613281 124.660156 -54.597656 123.203125 -52.765625 C 122.554688 -52.046875 121.164062 -50.125 119.03125 -47 C 116.90625 -43.882812 114.328125 -40.238281 111.296875 -36.0625 C 108.273438 -31.882812 105.054688 -27.765625 101.640625 -23.703125 C 98.234375 -19.648438 94.945312 -16.207031 91.78125 -13.375 C 88.613281 -10.539062 85.875 -8.945312 83.5625 -8.59375 C 80.644531 -8.15625 78.03125 -9 75.71875 -11.125 C 73.414062 -13.257812 72.109375 -15.351562 71.796875 -17.40625 C 71.460938 -19.59375 71.773438 -22.4375 72.734375 -25.9375 C 73.691406 -29.4375 74.992188 -33.140625 76.640625 -37.046875 C 78.285156 -40.953125 79.925781 -44.640625 81.5625 -48.109375 C 83.207031 -51.585938 84.566406 -54.460938 85.640625 -56.734375 C 86.722656 -59.015625 87.125 -60.253906 86.84375 -60.453125 C 86.5625 -60.671875 85.582031 -60 83.90625 -58.4375 C 82.226562 -56.875 80.160156 -54.757812 77.703125 -52.09375 C 75.253906 -49.425781 72.703125 -46.585938 70.046875 -43.578125 C 67.398438 -40.566406 64.945312 -37.738281 62.6875 -35.09375 C 60.425781 -32.457031 58.671875 -30.367188 57.421875 -28.828125 C 53.960938 -24.585938 51.023438 -20.421875 48.609375 -16.328125 C 46.191406 -12.234375 44.257812 -8.832031 42.8125 -6.125 C 41.363281 -3.425781 40.269531 -2.019531 39.53125 -1.90625 C 38.5625 -1.757812 37.101562 -2.375 35.15625 -3.75 C 33.207031 -5.132812 32.078125 -6.859375 31.765625 -8.921875 C 31.617188 -9.890625 32.160156 -11.828125 33.390625 -14.734375 C 34.628906 -17.648438 36.238281 -21.15625 38.21875 -25.25 C 40.207031 -29.34375 42.320312 -33.601562 44.5625 -38.03125 C 46.8125 -42.46875 48.882812 -46.597656 50.78125 -50.421875 C 52.675781 -54.242188 54.175781 -57.414062 55.28125 -59.9375 C 56.394531 -62.46875 56.738281 -63.882812 56.3125 -64.1875 C 56.039062 -64.40625 54.75 -63.34375 52.4375 -61 C 50.125 -58.664062 47.144531 -55.390625 43.5 -51.171875 C 39.863281 -46.960938 35.929688 -42.210938 31.703125 -36.921875 C 27.484375 -31.628906 23.320312 -26.125 19.21875 -20.40625 C 15.125 -14.695312 11.453125 -9.082031 8.203125 -3.5625 C 4.953125 1.945312 2.425781 6.953125 0.625 11.453125 C 0.28125 12.492188 -0.765625 12.738281 -2.515625 12.1875 C -4.273438 11.644531 -5.984375 10.601562 -7.640625 9.0625 C -9.304688 7.519531 -10.15625 5.820312 -10.1875 3.96875 C -10.175781 3.21875 -9.523438 1.164062 -8.234375 -2.1875 C -6.953125 -5.539062 -5.191406 -9.648438 -2.953125 -14.515625 C -0.710938 -19.390625 1.753906 -24.570312 4.453125 -30.0625 C 7.160156 -35.5625 9.921875 -40.882812 12.734375 -46.03125 C 17.398438 -54.5625 21.234375 -61.785156 24.234375 -67.703125 C 27.242188 -73.617188 29.898438 -76.75 32.203125 -77.09375 C 33.546875 -77.300781 35 -76.75 36.5625 -75.4375 C 38.125 -74.132812 39.203125 -72.71875 39.796875 -71.1875 C 40.398438 -69.664062 39.804688 -68.707031 38.015625 -68.3125 C 37.410156 -68.21875 35.847656 -66.425781 33.328125 -62.9375 C 30.816406 -59.457031 27.820312 -54.878906 24.34375 -49.203125 C 20.875 -43.523438 17.4375 -37.203125 14.03125 -30.234375 C 19.257812 -36.609375 24.703125 -43.015625 30.359375 -49.453125 C 36.015625 -55.898438 41.382812 -61.800781 46.46875 -67.15625 C 51.550781 -72.519531 55.945312 -76.878906 59.65625 -80.234375 C 63.363281 -83.585938 65.941406 -85.378906 67.390625 -85.609375 C 68.972656 -85.847656 70.472656 -85.390625 71.890625 -84.234375 C 73.304688 -83.085938 74.109375 -81.90625 74.296875 -80.6875 C 74.421875 -79.84375 73.507812 -77.257812 71.5625 -72.9375 C 69.613281 -68.613281 67.09375 -63.359375 64 -57.171875 C 60.90625 -50.992188 57.6875 -44.613281 54.34375 -38.03125 C 60.3125 -45.269531 66.085938 -51.945312 71.671875 -58.0625 C 77.253906 -64.175781 82.085938 -69.125 86.171875 -72.90625 C 90.253906 -76.695312 93.023438 -78.703125 94.484375 -78.921875 C 96.304688 -79.203125 97.800781 -78.71875 98.96875 -77.46875 C 100.144531 -76.21875 100.863281 -74.75 101.125 -73.0625 C 101.269531 -72.082031 100.804688 -70.207031 99.734375 -67.4375 C 98.671875 -64.664062 97.28125 -61.382812 95.5625 -57.59375 C 93.851562 -53.800781 92.070312 -49.835938 90.21875 -45.703125 C 88.363281 -41.566406 86.691406 -37.648438 85.203125 -33.953125 C 83.710938 -30.265625 82.691406 -27.140625 82.140625 -24.578125 C 81.597656 -22.015625 81.765625 -20.359375 82.640625 -19.609375 C 83.472656 -19.003906 85.195312 -19.890625 87.8125 -22.265625 C 90.425781 -24.648438 93.476562 -27.84375 96.96875 -31.84375 C 100.457031 -35.84375 103.972656 -40.035156 107.515625 -44.421875 C 111.066406 -48.816406 114.238281 -52.835938 117.03125 -56.484375 C 119.832031 -60.140625 121.753906 -62.660156 122.796875 -64.046875 Z M 122.796875 -64.046875 "/></g></g></g><g fill="#000000" fill-opacity="1"><g transform="translate(530.602919, 815.058986)"><g><path d="M 76.171875 -49.890625 C 78.742188 -50.910156 81.304688 -51.582031 83.859375 -51.90625 C 86.421875 -52.238281 88.285156 -52.242188 89.453125 -51.921875 C 90.617188 -51.597656 90.390625 -51.070312 88.765625 -50.34375 C 85.609375 -48.988281 82.523438 -47.613281 79.515625 -46.21875 C 76.503906 -44.832031 73.617188 -43.4375 70.859375 -42.03125 C 65.628906 -34.03125 60.347656 -26.523438 55.015625 -19.515625 C 49.679688 -12.515625 44.476562 -6.734375 39.40625 -2.171875 C 34.332031 2.390625 29.488281 5.019531 24.875 5.71875 C 22.5625 6.070312 20.148438 5.132812 17.640625 2.90625 C 15.140625 0.675781 13.648438 -2.015625 13.171875 -5.171875 C 12.671875 -8.441406 14.566406 -12.265625 18.859375 -16.640625 C 23.160156 -21.015625 29.019531 -25.535156 36.4375 -30.203125 C 43.863281 -34.867188 51.988281 -39.234375 60.8125 -43.296875 C 65.800781 -51.242188 69.546875 -58.015625 72.046875 -63.609375 C 74.554688 -69.203125 74.984375 -72.492188 73.328125 -73.484375 C 71.960938 -74.390625 69.066406 -73.453125 64.640625 -70.671875 C 60.222656 -67.898438 54.898438 -63.742188 48.671875 -58.203125 C 42.441406 -52.660156 35.847656 -46.039062 28.890625 -38.34375 C 21.929688 -30.65625 15.109375 -22.269531 8.421875 -13.1875 C 1.734375 -4.101562 -4.222656 5.296875 -9.453125 15.015625 C -12.816406 22.234375 -16.109375 29.34375 -19.328125 36.34375 C -22.546875 43.34375 -25.421875 49.734375 -27.953125 55.515625 C -30.484375 61.296875 -32.515625 66.101562 -34.046875 69.9375 C -33.378906 69.46875 -32.40625 68.539062 -31.125 67.15625 C -29.84375 65.78125 -28.617188 64.390625 -27.453125 62.984375 C -26.296875 61.679688 -25.671875 61.332031 -25.578125 61.9375 C -25.492188 62.550781 -25.75 63.738281 -26.34375 65.5 C -26.945312 67.269531 -27.695312 69.25 -28.59375 71.4375 C -29.5 73.625 -30.4375 75.65625 -31.40625 77.53125 C -33.3125 81.300781 -35.222656 84.632812 -37.140625 87.53125 C -39.054688 90.425781 -41.285156 92.066406 -43.828125 92.453125 C -45.535156 92.703125 -46.78125 92.265625 -47.5625 91.140625 C -48.351562 90.023438 -48.84375 88.859375 -49.03125 87.640625 C -49.363281 85.460938 -49.078125 83.0625 -48.171875 80.4375 C -47.273438 77.820312 -46.5 75.789062 -45.84375 74.34375 C -45.007812 72.476562 -43.671875 69.445312 -41.828125 65.25 C -39.984375 61.0625 -37.785156 56.132812 -35.234375 50.46875 C -32.679688 44.8125 -29.988281 38.851562 -27.15625 32.59375 C -24.320312 26.332031 -21.53125 20.171875 -18.78125 14.109375 C -16.039062 8.054688 -13.46875 2.550781 -11.0625 -2.40625 C -8.65625 -7.363281 -6.679688 -11.328125 -5.140625 -14.296875 C 5.390625 -34.003906 14.253906 -50.171875 21.453125 -62.796875 C 28.648438 -75.429688 33.910156 -83.492188 37.234375 -86.984375 C 38.304688 -88.023438 39.554688 -88.34375 40.984375 -87.9375 C 42.421875 -87.53125 43.742188 -86.796875 44.953125 -85.734375 C 46.160156 -84.679688 47.003906 -83.597656 47.484375 -82.484375 C 47.972656 -81.378906 47.75 -80.632812 46.8125 -80.25 C 46.09375 -80.019531 43.472656 -77.019531 38.953125 -71.25 C 34.441406 -65.476562 28.796875 -57.109375 22.015625 -46.140625 C 20.828125 -44.234375 19.5 -41.953125 18.03125 -39.296875 C 16.570312 -36.648438 15.023438 -33.78125 13.390625 -30.6875 C 17.691406 -36.6875 22.664062 -42.71875 28.3125 -48.78125 C 33.96875 -54.84375 39.75 -60.492188 45.65625 -65.734375 C 51.570312 -70.972656 57.148438 -75.296875 62.390625 -78.703125 C 67.640625 -82.109375 72.03125 -84.082031 75.5625 -84.625 C 76.644531 -84.789062 77.910156 -84.789062 79.359375 -84.625 C 80.804688 -84.46875 82.191406 -83.71875 83.515625 -82.375 C 84.835938 -81.03125 85.875 -78.738281 86.625 -75.5 C 87.65625 -71.0625 84.171875 -62.523438 76.171875 -49.890625 Z M 26.453125 -7.1875 C 27.585938 -6.238281 29.203125 -6.421875 31.296875 -7.734375 C 33.398438 -9.046875 35.765625 -11.046875 38.390625 -13.734375 C 41.023438 -16.429688 43.664062 -19.46875 46.3125 -22.84375 C 48.957031 -26.226562 51.40625 -29.515625 53.65625 -32.703125 C 43.757812 -26.859375 36.253906 -21.566406 31.140625 -16.828125 C 26.023438 -12.085938 24.460938 -8.875 26.453125 -7.1875 Z M 26.453125 -7.1875 "/></g></g></g><g fill="#000000" fill-opacity="1"><g transform="translate(618.284052, 801.745591)"><g><path d="M 97.15625 -66.109375 C 98.082031 -67.367188 98.734375 -67.191406 99.109375 -65.578125 C 99.484375 -63.960938 99.457031 -61.847656 99.03125 -59.234375 C 98.613281 -56.628906 97.679688 -54.410156 96.234375 -52.578125 C 95.703125 -51.992188 94.390625 -50.210938 92.296875 -47.234375 C 90.203125 -44.253906 87.585938 -40.660156 84.453125 -36.453125 C 81.316406 -32.253906 77.894531 -27.828125 74.1875 -23.171875 C 70.476562 -18.515625 66.828125 -14.144531 63.234375 -10.0625 C 59.640625 -5.976562 56.3125 -2.585938 53.25 0.109375 C 50.1875 2.804688 47.6875 4.300781 45.75 4.59375 C 43.5625 4.925781 41.375 4.015625 39.1875 1.859375 C 37 -0.285156 35.75 -2.390625 35.4375 -4.453125 C 34.738281 -9.066406 35.394531 -14.34375 37.40625 -20.28125 C 39.414062 -26.226562 42.023438 -32.488281 45.234375 -39.0625 C 40.117188 -31.96875 34.832031 -25.335938 29.375 -19.171875 C 23.925781 -13.003906 19.015625 -7.972656 14.640625 -4.078125 C 10.265625 -0.191406 7.046875 1.90625 4.984375 2.21875 C 3.046875 2.507812 1.09375 1.691406 -0.875 -0.234375 C -2.84375 -2.171875 -4.023438 -4.414062 -4.421875 -6.96875 C -4.691406 -8.78125 -3.9375 -11.804688 -2.15625 -16.046875 C -0.382812 -20.285156 1.945312 -25.101562 4.84375 -30.5 C 7.75 -35.90625 10.800781 -41.363281 14 -46.875 C 17.195312 -52.382812 20.210938 -57.460938 23.046875 -62.109375 C 25.878906 -66.765625 28.035156 -70.320312 29.515625 -72.78125 C 30.585938 -74.6875 31.800781 -75.460938 33.15625 -75.109375 C 34.519531 -74.753906 35.738281 -73.914062 36.8125 -72.59375 C 37.882812 -71.269531 38.578125 -69.945312 38.890625 -68.625 C 39.210938 -67.300781 38.832031 -66.554688 37.75 -66.390625 C 37.257812 -66.316406 36.46875 -65.578125 35.375 -64.171875 C 34.289062 -62.765625 33.203125 -61.175781 32.109375 -59.40625 C 30.210938 -56.382812 28.015625 -52.882812 25.515625 -48.90625 C 23.023438 -44.9375 20.570312 -40.875 18.15625 -36.71875 C 15.738281 -32.570312 13.597656 -28.679688 11.734375 -25.046875 C 9.867188 -21.410156 8.492188 -18.410156 7.609375 -16.046875 C 6.722656 -13.679688 6.691406 -12.242188 7.515625 -11.734375 C 8.335938 -11.242188 9.898438 -11.984375 12.203125 -13.953125 C 14.515625 -15.921875 17.175781 -18.617188 20.1875 -22.046875 C 23.195312 -25.484375 26.359375 -29.15625 29.671875 -33.0625 C 32.992188 -36.976562 36.125 -40.710938 39.0625 -44.265625 C 40.9375 -46.660156 43.367188 -49.851562 46.359375 -53.84375 C 49.347656 -57.832031 52.40625 -61.984375 55.53125 -66.296875 C 58.65625 -70.617188 61.425781 -74.421875 63.84375 -77.703125 C 66.269531 -80.992188 67.851562 -83.066406 68.59375 -83.921875 C 69.332031 -84.773438 70.390625 -84.9375 71.765625 -84.40625 C 73.148438 -83.875 74.519531 -83.03125 75.875 -81.875 C 77.226562 -80.71875 78.175781 -79.585938 78.71875 -78.484375 C 79.257812 -77.390625 78.984375 -76.757812 77.890625 -76.59375 C 77.398438 -76.519531 76.09375 -74.894531 73.96875 -71.71875 C 71.851562 -68.539062 69.3125 -64.460938 66.34375 -59.484375 C 63.375 -54.503906 60.429688 -49.15625 57.515625 -43.4375 C 54.597656 -37.726562 51.960938 -32.210938 49.609375 -26.890625 C 47.253906 -21.566406 45.609375 -17.0625 44.671875 -13.375 C 43.742188 -9.695312 43.851562 -7.390625 45 -6.453125 C 45.820312 -5.835938 47.550781 -6.660156 50.1875 -8.921875 C 52.832031 -11.179688 55.945312 -14.378906 59.53125 -18.515625 C 63.125 -22.660156 66.90625 -27.175781 70.875 -32.0625 C 74.851562 -36.957031 78.675781 -41.789062 82.34375 -46.5625 C 86.019531 -51.332031 89.175781 -55.46875 91.8125 -58.96875 C 94.445312 -62.46875 96.226562 -64.847656 97.15625 -66.109375 Z M 97.15625 -66.109375 "/></g></g></g><g fill="#000000" fill-opacity="1"><g transform="translate(697.23345, 789.758011)"><g><path d="M 61.578125 -51.59375 C 65.003906 -52.738281 66.003906 -52.488281 64.578125 -50.84375 C 63.160156 -49.195312 60.109375 -47.023438 55.421875 -44.328125 C 53.941406 -43.484375 52.351562 -42.5 50.65625 -41.375 C 48.96875 -40.25 47.175781 -38.984375 45.28125 -37.578125 C 43.332031 -32.453125 41.210938 -27.234375 38.921875 -21.921875 C 35.492188 -14.203125 31.769531 -7.210938 27.75 -0.953125 C 23.738281 5.304688 19.722656 10.316406 15.703125 14.078125 C 11.691406 17.847656 7.867188 20.007812 4.234375 20.5625 C 1.566406 20.96875 -1.160156 20.328125 -3.953125 18.640625 C -6.753906 16.960938 -8.382812 14.613281 -8.84375 11.59375 C -9.132812 9.644531 -8.140625 6.789062 -5.859375 3.03125 C -3.585938 -0.71875 -0.359375 -4.957031 3.828125 -9.6875 C 8.015625 -14.425781 12.832031 -19.253906 18.28125 -24.171875 C 23.738281 -29.097656 29.441406 -33.628906 35.390625 -37.765625 C 37.066406 -42.222656 38.554688 -46.722656 39.859375 -51.265625 C 41.160156 -55.816406 42.097656 -59.65625 42.671875 -62.78125 C 43.242188 -65.90625 43.132812 -67.65625 42.34375 -68.03125 C 41.519531 -68.53125 39.660156 -67.253906 36.765625 -64.203125 C 33.878906 -61.160156 30.40625 -57.09375 26.34375 -52 C 22.289062 -46.914062 18.035156 -41.4375 13.578125 -35.5625 C 11.710938 -33.15625 9.664062 -30.882812 7.4375 -28.75 C 5.21875 -26.625 2.507812 -24.265625 -0.6875 -21.671875 C -1.8125 -20.878906 -3.175781 -20.050781 -4.78125 -19.1875 C -6.382812 -18.320312 -7.59375 -17.921875 -8.40625 -17.984375 C -9.226562 -18.046875 -8.898438 -18.929688 -7.421875 -20.640625 C -0.804688 -28.597656 5.226562 -36.25 10.6875 -43.59375 C 16.15625 -50.9375 21.050781 -57.507812 25.375 -63.3125 C 29.695312 -69.125 33.394531 -73.75 36.46875 -77.1875 C 39.550781 -80.625 42.003906 -82.484375 43.828125 -82.765625 C 46.003906 -83.085938 48.1875 -82.175781 50.375 -80.03125 C 52.5625 -77.882812 53.8125 -75.78125 54.125 -73.71875 C 54.488281 -71.300781 54.144531 -67.625 53.09375 -62.6875 C 52.050781 -57.75 50.453125 -52.140625 48.296875 -45.859375 C 53.015625 -48.304688 57.441406 -50.21875 61.578125 -51.59375 Z M 29.53125 -23.65625 L 30.375 -25.453125 C 24.914062 -20.523438 19.835938 -15.566406 15.140625 -10.578125 C 10.441406 -5.585938 6.859375 -1.203125 4.390625 2.578125 C 1.929688 6.367188 1.296875 8.914062 2.484375 10.21875 C 3.523438 11.4375 4.960938 11.34375 6.796875 9.9375 C 8.640625 8.539062 10.671875 6.367188 12.890625 3.421875 C 15.109375 0.484375 17.316406 -2.726562 19.515625 -6.21875 C 21.710938 -9.707031 23.6875 -13.046875 25.4375 -16.234375 C 27.195312 -19.421875 28.5625 -21.894531 29.53125 -23.65625 Z M 29.53125 -23.65625 "/></g></g></g><g fill="#000000" fill-opacity="1"><g transform="translate(760.902335, 780.090606)"><g/></g></g><g fill="#000000" fill-opacity="1"><g transform="translate(806.380141, 773.185312)"><g><path d="M 238.453125 -204.453125 C 239.828125 -204.285156 240.769531 -203.34375 241.28125 -201.625 C 241.789062 -199.90625 241.554688 -198.59375 240.578125 -197.6875 C 237.835938 -195.300781 233.898438 -191.203125 228.765625 -185.390625 C 223.640625 -179.585938 217.878906 -172.789062 211.484375 -165 L 211.515625 -164.8125 C 211.804688 -162.125 211.085938 -159.9375 209.359375 -158.25 C 207.628906 -156.5625 205.9375 -155.835938 204.28125 -156.078125 C 198.132812 -148.328125 191.894531 -140.1875 185.5625 -131.65625 C 179.226562 -123.125 173.242188 -114.738281 167.609375 -106.5 C 161.972656 -98.269531 157.085938 -90.609375 152.953125 -83.515625 C 151.460938 -81.054688 150.46875 -79.226562 149.96875 -78.03125 C 149.46875 -76.84375 149.410156 -75.785156 149.796875 -74.859375 C 150.546875 -73.222656 150.765625 -71.578125 150.453125 -69.921875 C 150.148438 -68.265625 149.335938 -67.335938 148.015625 -67.140625 C 147.148438 -67.003906 145.78125 -67.597656 143.90625 -68.921875 C 142.03125 -70.242188 141.25 -72.738281 141.5625 -76.40625 C 141.769531 -79.164062 143.0625 -82.925781 145.4375 -87.6875 C 147.8125 -92.445312 150.945312 -97.914062 154.84375 -104.09375 C 158.75 -110.269531 163.175781 -116.863281 168.125 -123.875 C 173.082031 -130.894531 178.273438 -137.976562 183.703125 -145.125 C 189.128906 -152.28125 194.441406 -159.171875 199.640625 -165.796875 C 198.222656 -169.429688 195.773438 -172.097656 192.296875 -173.796875 C 188.816406 -175.503906 184.707031 -176 179.96875 -175.28125 C 169.65625 -173.71875 158.789062 -170.484375 147.375 -165.578125 C 135.957031 -160.679688 124.488281 -154.503906 112.96875 -147.046875 C 101.445312 -139.597656 90.320312 -131.148438 79.59375 -121.703125 C 68.875 -112.253906 59.023438 -102.164062 50.046875 -91.4375 C 41.066406 -80.707031 33.34375 -69.671875 26.875 -58.328125 C 20.40625 -46.984375 15.734375 -35.664062 12.859375 -24.375 C 9.984375 -13.09375 9.34375 -2.171875 10.9375 8.390625 C 12.539062 18.929688 16.835938 26.773438 23.828125 31.921875 C 30.816406 37.066406 39.460938 38.859375 49.765625 37.296875 C 63.472656 35.210938 77.257812 31.007812 91.125 24.6875 C 104.988281 18.363281 118.515625 10.628906 131.703125 1.484375 C 144.898438 -7.648438 157.425781 -17.488281 169.28125 -28.03125 C 181.144531 -38.570312 191.875 -49.035156 201.46875 -59.421875 C 202.09375 -60.148438 202.617188 -59.925781 203.046875 -58.75 C 203.472656 -57.570312 203.46875 -55.957031 203.03125 -53.90625 C 202.601562 -51.863281 201.441406 -49.765625 199.546875 -47.609375 C 188.816406 -35.679688 177.128906 -24.378906 164.484375 -13.703125 C 151.835938 -3.035156 138.929688 6.546875 125.765625 15.046875 C 112.597656 23.554688 99.644531 30.578125 86.90625 36.109375 C 74.164062 41.648438 62.273438 45.257812 51.234375 46.9375 C 42.628906 48.25 34.710938 47.59375 27.484375 44.96875 C 20.265625 42.34375 14.300781 38.003906 9.59375 31.953125 C 4.894531 25.898438 1.890625 18.570312 0.578125 9.96875 C -1.148438 -1.4375 -0.515625 -13.195312 2.484375 -25.3125 C 5.484375 -37.4375 10.347656 -49.53125 17.078125 -61.59375 C 23.804688 -73.65625 31.925781 -85.335938 41.4375 -96.640625 C 50.945312 -107.953125 61.367188 -118.5625 72.703125 -128.46875 C 84.046875 -138.382812 95.816406 -147.273438 108.015625 -155.140625 C 120.210938 -163.015625 132.347656 -169.507812 144.421875 -174.625 C 156.492188 -179.75 168.046875 -183.148438 179.078125 -184.828125 C 185.265625 -185.765625 190.882812 -185.5 195.9375 -184.03125 C 201 -182.570312 204.945312 -179.878906 207.78125 -175.953125 C 213.84375 -183.453125 219.210938 -189.976562 223.890625 -195.53125 C 228.566406 -201.082031 231.929688 -204.882812 233.984375 -206.9375 C 234.628906 -207.53125 235.425781 -207.773438 236.375 -207.671875 C 237.320312 -207.566406 238.015625 -206.492188 238.453125 -204.453125 Z M 238.453125 -204.453125 "/></g></g></g><g fill="#000000" fill-opacity="1"><g transform="translate(1002.662162, 743.382092)"><g><path d="M 79.8125 -72.609375 C 81.488281 -73.734375 82.195312 -73.53125 81.9375 -72 C 81.675781 -70.46875 79.773438 -68.25 76.234375 -65.34375 C 72.679688 -62.582031 68.65625 -60.300781 64.15625 -58.5 C 59.664062 -56.695312 55.40625 -55.550781 51.375 -55.0625 C 50.40625 -54.914062 49.453125 -54.863281 48.515625 -54.90625 C 47.578125 -54.957031 46.613281 -54.972656 45.625 -54.953125 C 44.476562 -51.921875 42.5625 -47.8125 39.875 -42.625 C 37.1875 -37.445312 34.03125 -31.882812 30.40625 -25.9375 C 26.78125 -19.988281 23.046875 -14.332031 19.203125 -8.96875 C 15.367188 -3.601562 11.695312 0.800781 8.1875 4.25 C 4.675781 7.695312 1.703125 9.539062 -0.734375 9.78125 C -2.097656 9.875 -3.898438 9.28125 -6.140625 8 C -8.378906 6.726562 -9.671875 4.566406 -10.015625 1.515625 C -10.203125 0.296875 -9.601562 -2.085938 -8.21875 -5.640625 C -6.832031 -9.203125 -4.941406 -13.519531 -2.546875 -18.59375 C -0.160156 -23.675781 2.582031 -29.085938 5.6875 -34.828125 C 8.789062 -40.578125 11.992188 -46.273438 15.296875 -51.921875 C 18.597656 -57.566406 21.847656 -62.710938 25.046875 -67.359375 C 28.242188 -72.003906 31.171875 -75.796875 33.828125 -78.734375 C 36.484375 -81.679688 38.597656 -83.273438 40.171875 -83.515625 C 41.992188 -83.796875 43.597656 -83.453125 44.984375 -82.484375 C 46.367188 -81.515625 47.269531 -80.472656 47.6875 -79.359375 C 48.113281 -78.242188 47.71875 -77.59375 46.5 -77.40625 C 45.644531 -77.28125 44.765625 -76.929688 43.859375 -76.359375 C 42.953125 -75.785156 42.007812 -75.050781 41.03125 -74.15625 C 42.90625 -73.320312 44.273438 -71.851562 45.140625 -69.75 C 46.015625 -67.644531 46.523438 -65.304688 46.671875 -62.734375 C 47.546875 -62.734375 48.445312 -62.710938 49.375 -62.671875 C 50.3125 -62.640625 51.269531 -62.695312 52.25 -62.84375 C 54.789062 -63.226562 57.898438 -63.976562 61.578125 -65.09375 C 65.265625 -66.207031 68.800781 -67.457031 72.1875 -68.84375 C 75.570312 -70.226562 78.113281 -71.484375 79.8125 -72.609375 Z M 2.84375 -5.828125 C 3.539062 -5.316406 4.890625 -6.019531 6.890625 -7.9375 C 8.898438 -9.851562 11.1875 -12.585938 13.75 -16.140625 C 16.3125 -19.691406 18.941406 -23.59375 21.640625 -27.84375 C 24.347656 -32.09375 26.84375 -36.285156 29.125 -40.421875 C 31.414062 -44.554688 33.25 -48.21875 34.625 -51.40625 C 36.007812 -54.601562 36.601562 -56.867188 36.40625 -58.203125 L 36.234375 -59.28125 C 34.941406 -60.457031 33.75 -61.765625 32.65625 -63.203125 C 31.164062 -60.753906 29.078125 -57.335938 26.390625 -52.953125 C 23.710938 -48.566406 20.867188 -43.785156 17.859375 -38.609375 C 14.859375 -33.441406 12.078125 -28.460938 9.515625 -23.671875 C 6.960938 -18.890625 5.035156 -14.847656 3.734375 -11.546875 C 2.441406 -8.242188 2.144531 -6.335938 2.84375 -5.828125 Z M 2.84375 -5.828125 "/></g></g></g><g fill="#000000" fill-opacity="1"><g transform="translate(1055.59829, 735.344336)"><g><path d="M -1.921875 11.828125 C -3.253906 12.035156 -4.519531 11.453125 -5.71875 10.078125 C -6.925781 8.710938 -7.828125 7.082031 -8.421875 5.1875 C -9.015625 3.289062 -9.046875 1.679688 -8.515625 0.359375 C -6.441406 -4.785156 -3.96875 -10.554688 -1.09375 -16.953125 C 1.78125 -23.347656 4.929688 -29.96875 8.359375 -36.8125 C 11.785156 -43.664062 15.347656 -50.441406 19.046875 -57.140625 C 22.742188 -63.847656 26.335938 -70.003906 29.828125 -75.609375 C 30.609375 -76.984375 31.722656 -77.40625 33.171875 -76.875 C 34.617188 -76.351562 35.972656 -75.410156 37.234375 -74.046875 C 38.503906 -72.691406 39.359375 -71.394531 39.796875 -70.15625 C 40.234375 -68.914062 39.84375 -68.203125 38.625 -68.015625 C 37.894531 -67.898438 36.617188 -66.679688 34.796875 -64.359375 C 32.972656 -62.046875 30.90625 -59.097656 28.59375 -55.515625 C 26.289062 -51.941406 23.960938 -48.117188 21.609375 -44.046875 C 20.421875 -42.003906 19.101562 -39.597656 17.65625 -36.828125 C 16.21875 -34.054688 14.878906 -31.429688 13.640625 -28.953125 C 12.410156 -26.472656 11.519531 -24.601562 10.96875 -23.34375 C 10.414062 -22.082031 10.503906 -21.882812 11.234375 -22.75 C 17.722656 -30.664062 24.117188 -38.175781 30.421875 -45.28125 C 36.734375 -52.382812 42.546875 -58.664062 47.859375 -64.125 C 53.179688 -69.582031 57.734375 -73.929688 61.515625 -77.171875 C 65.304688 -80.421875 67.988281 -82.164062 69.5625 -82.40625 C 71.257812 -82.65625 72.59375 -82.046875 73.5625 -80.578125 C 75.289062 -79.847656 76.25 -78.878906 76.4375 -77.671875 C 76.539062 -76.941406 75.832031 -75.035156 74.3125 -71.953125 C 72.789062 -68.867188 70.878906 -65.101562 68.578125 -60.65625 C 66.273438 -56.21875 63.847656 -51.570312 61.296875 -46.71875 C 58.742188 -41.863281 56.46875 -37.238281 54.46875 -32.84375 C 52.46875 -28.445312 51.085938 -24.664062 50.328125 -21.5 C 49.578125 -18.34375 49.765625 -16.300781 50.890625 -15.375 C 51.734375 -14.738281 53.21875 -15.171875 55.34375 -16.671875 C 57.476562 -18.179688 59.960938 -20.421875 62.796875 -23.390625 C 65.628906 -26.367188 68.570312 -29.644531 71.625 -33.21875 C 74.6875 -36.789062 77.648438 -40.375 80.515625 -43.96875 C 83.390625 -47.5625 85.890625 -50.726562 88.015625 -53.46875 C 90.140625 -56.207031 91.664062 -58.203125 92.59375 -59.453125 C 93.519531 -60.710938 94.296875 -60.707031 94.921875 -59.4375 C 95.546875 -58.164062 95.742188 -56.429688 95.515625 -54.234375 C 95.296875 -52.035156 94.457031 -50.019531 93 -48.1875 C 92.363281 -47.457031 90.941406 -45.5625 88.734375 -42.5 C 86.535156 -39.4375 83.828125 -35.832031 80.609375 -31.6875 C 77.390625 -27.539062 73.972656 -23.453125 70.359375 -19.421875 C 66.753906 -15.398438 63.34375 -11.96875 60.125 -9.125 C 56.90625 -6.28125 54.140625 -4.6875 51.828125 -4.34375 C 48.921875 -3.894531 46.3125 -4.734375 44 -6.859375 C 41.6875 -8.984375 40.375 -11.078125 40.0625 -13.140625 C 39.65625 -15.816406 40.113281 -19.113281 41.4375 -23.03125 C 42.769531 -26.957031 44.472656 -31.09375 46.546875 -35.4375 C 48.617188 -39.789062 50.695312 -43.863281 52.78125 -47.65625 C 54.875 -51.445312 56.535156 -54.613281 57.765625 -57.15625 C 58.992188 -59.707031 59.332031 -61.125 58.78125 -61.40625 C 58.375 -61.71875 57.082031 -60.867188 54.90625 -58.859375 C 52.726562 -56.859375 50.03125 -54.1875 46.8125 -50.84375 C 43.59375 -47.507812 40.15625 -43.789062 36.5 -39.6875 C 32.84375 -35.59375 29.253906 -31.445312 25.734375 -27.25 C 22.210938 -23.0625 19.109375 -19.179688 16.421875 -15.609375 C 13.734375 -12.046875 11.691406 -9.164062 10.296875 -6.96875 C 6.910156 -1.476562 4.359375 2.972656 2.640625 6.390625 C 0.929688 9.816406 -0.585938 11.628906 -1.921875 11.828125 Z M -1.921875 11.828125 "/></g></g></g><g fill="#000000" fill-opacity="1"><g transform="translate(1134.729624, 723.329131)"><g><path d="M -1.921875 11.828125 C -3.253906 12.035156 -4.519531 11.453125 -5.71875 10.078125 C -6.925781 8.710938 -7.828125 7.082031 -8.421875 5.1875 C -9.015625 3.289062 -9.046875 1.679688 -8.515625 0.359375 C -6.441406 -4.785156 -3.96875 -10.554688 -1.09375 -16.953125 C 1.78125 -23.347656 4.929688 -29.96875 8.359375 -36.8125 C 11.785156 -43.664062 15.347656 -50.441406 19.046875 -57.140625 C 22.742188 -63.847656 26.335938 -70.003906 29.828125 -75.609375 C 30.609375 -76.984375 31.722656 -77.40625 33.171875 -76.875 C 34.617188 -76.351562 35.972656 -75.410156 37.234375 -74.046875 C 38.503906 -72.691406 39.359375 -71.394531 39.796875 -70.15625 C 40.234375 -68.914062 39.84375 -68.203125 38.625 -68.015625 C 37.894531 -67.898438 36.617188 -66.679688 34.796875 -64.359375 C 32.972656 -62.046875 30.90625 -59.097656 28.59375 -55.515625 C 26.289062 -51.941406 23.960938 -48.117188 21.609375 -44.046875 C 20.421875 -42.003906 19.101562 -39.597656 17.65625 -36.828125 C 16.21875 -34.054688 14.878906 -31.429688 13.640625 -28.953125 C 12.410156 -26.472656 11.519531 -24.601562 10.96875 -23.34375 C 10.414062 -22.082031 10.503906 -21.882812 11.234375 -22.75 C 17.722656 -30.664062 24.117188 -38.175781 30.421875 -45.28125 C 36.734375 -52.382812 42.546875 -58.664062 47.859375 -64.125 C 53.179688 -69.582031 57.734375 -73.929688 61.515625 -77.171875 C 65.304688 -80.421875 67.988281 -82.164062 69.5625 -82.40625 C 71.257812 -82.65625 72.59375 -82.046875 73.5625 -80.578125 C 75.289062 -79.847656 76.25 -78.878906 76.4375 -77.671875 C 76.539062 -76.941406 75.832031 -75.035156 74.3125 -71.953125 C 72.789062 -68.867188 70.878906 -65.101562 68.578125 -60.65625 C 66.273438 -56.21875 63.847656 -51.570312 61.296875 -46.71875 C 58.742188 -41.863281 56.46875 -37.238281 54.46875 -32.84375 C 52.46875 -28.445312 51.085938 -24.664062 50.328125 -21.5 C 49.578125 -18.34375 49.765625 -16.300781 50.890625 -15.375 C 51.734375 -14.738281 53.21875 -15.171875 55.34375 -16.671875 C 57.476562 -18.179688 59.960938 -20.421875 62.796875 -23.390625 C 65.628906 -26.367188 68.570312 -29.644531 71.625 -33.21875 C 74.6875 -36.789062 77.648438 -40.375 80.515625 -43.96875 C 83.390625 -47.5625 85.890625 -50.726562 88.015625 -53.46875 C 90.140625 -56.207031 91.664062 -58.203125 92.59375 -59.453125 C 93.519531 -60.710938 94.296875 -60.707031 94.921875 -59.4375 C 95.546875 -58.164062 95.742188 -56.429688 95.515625 -54.234375 C 95.296875 -52.035156 94.457031 -50.019531 93 -48.1875 C 92.363281 -47.457031 90.941406 -45.5625 88.734375 -42.5 C 86.535156 -39.4375 83.828125 -35.832031 80.609375 -31.6875 C 77.390625 -27.539062 73.972656 -23.453125 70.359375 -19.421875 C 66.753906 -15.398438 63.34375 -11.96875 60.125 -9.125 C 56.90625 -6.28125 54.140625 -4.6875 51.828125 -4.34375 C 48.921875 -3.894531 46.3125 -4.734375 44 -6.859375 C 41.6875 -8.984375 40.375 -11.078125 40.0625 -13.140625 C 39.65625 -15.816406 40.113281 -19.113281 41.4375 -23.03125 C 42.769531 -26.957031 44.472656 -31.09375 46.546875 -35.4375 C 48.617188 -39.789062 50.695312 -43.863281 52.78125 -47.65625 C 54.875 -51.445312 56.535156 -54.613281 57.765625 -57.15625 C 58.992188 -59.707031 59.332031 -61.125 58.78125 -61.40625 C 58.375 -61.71875 57.082031 -60.867188 54.90625 -58.859375 C 52.726562 -56.859375 50.03125 -54.1875 46.8125 -50.84375 C 43.59375 -47.507812 40.15625 -43.789062 36.5 -39.6875 C 32.84375 -35.59375 29.253906 -31.445312 25.734375 -27.25 C 22.210938 -23.0625 19.109375 -19.179688 16.421875 -15.609375 C 13.734375 -12.046875 11.691406 -9.164062 10.296875 -6.96875 C 6.910156 -1.476562 4.359375 2.972656 2.640625 6.390625 C 0.929688 9.816406 -0.585938 11.628906 -1.921875 11.828125 Z M -1.921875 11.828125 "/></g></g></g><g fill="#000000" fill-opacity="1"><g transform="translate(1213.860958, 711.313927)"><g><path d="M 64.734375 -55.421875 C 65.753906 -56.816406 66.335938 -56.597656 66.484375 -54.765625 C 66.640625 -52.929688 66.164062 -50.347656 65.0625 -47.015625 C 63.957031 -43.679688 61.941406 -40.238281 59.015625 -36.6875 C 50.503906 -26.46875 43.390625 -18.347656 37.671875 -12.328125 C 31.953125 -6.304688 27.117188 -1.972656 23.171875 0.671875 C 19.234375 3.316406 15.679688 4.816406 12.515625 5.171875 C 9.210938 5.546875 6.203125 4.359375 3.484375 1.609375 C 0.773438 -1.140625 -0.769531 -4.222656 -1.15625 -7.640625 C -1.5625 -11.179688 -1.046875 -15.359375 0.390625 -20.171875 C 1.828125 -24.984375 3.878906 -30.039062 6.546875 -35.34375 C 9.210938 -40.644531 12.296875 -45.851562 15.796875 -50.96875 C 19.304688 -56.09375 22.910156 -60.765625 26.609375 -64.984375 C 30.304688 -69.203125 33.84375 -72.65625 37.21875 -75.34375 C 40.601562 -78.03125 43.578125 -79.503906 46.140625 -79.765625 C 48.585938 -80.023438 50.945312 -79.394531 53.21875 -77.875 C 55.5 -76.351562 56.78125 -74.25 57.0625 -71.5625 C 57.351562 -68.75 56.191406 -65.347656 53.578125 -61.359375 C 50.960938 -57.367188 47.414062 -53.171875 42.9375 -48.765625 C 38.457031 -44.367188 33.492188 -40.082031 28.046875 -35.90625 C 22.609375 -31.726562 17.148438 -28.039062 11.671875 -24.84375 C 9.753906 -20.34375 8.53125 -16.34375 8 -12.84375 C 7.476562 -9.351562 8.003906 -6.921875 9.578125 -5.546875 C 11.441406 -3.960938 13.957031 -3.941406 17.125 -5.484375 C 20.300781 -7.023438 23.910156 -9.617188 27.953125 -13.265625 C 31.992188 -16.921875 36.1875 -21.1875 40.53125 -26.0625 C 44.875 -30.9375 49.132812 -35.953125 53.3125 -41.109375 C 57.488281 -46.273438 61.296875 -51.046875 64.734375 -55.421875 Z M 44.703125 -67.28125 C 43.296875 -68.300781 41.132812 -67.566406 38.21875 -65.078125 C 35.3125 -62.585938 32.15625 -59.066406 28.75 -54.515625 C 25.351562 -49.960938 22.082031 -44.972656 18.9375 -39.546875 C 22.164062 -41.898438 25.488281 -44.515625 28.90625 -47.390625 C 32.320312 -50.265625 35.4375 -53.0625 38.25 -55.78125 C 41.0625 -58.507812 43.117188 -60.898438 44.421875 -62.953125 C 45.722656 -65.015625 45.816406 -66.457031 44.703125 -67.28125 Z M 44.703125 -67.28125 "/></g></g></g><g fill="#000000" fill-opacity="1"><g transform="translate(1264.796066, 703.580003)"><g><path d="M 6.0625 9.328125 C 4.601562 9.546875 3.144531 9.140625 1.6875 8.109375 C 0.238281 7.085938 -0.96875 5.84375 -1.9375 4.375 C -2.90625 2.914062 -3.484375 1.578125 -3.671875 0.359375 C -4.109375 -2.546875 -3.78125 -6.34375 -2.6875 -11.03125 C -1.601562 -15.726562 0.128906 -20.832031 2.515625 -26.34375 C 4.898438 -31.851562 7.734375 -37.28125 11.015625 -42.625 C 14.703125 -48.644531 18.566406 -54.253906 22.609375 -59.453125 C 26.660156 -64.648438 30.710938 -69.015625 34.765625 -72.546875 C 38.816406 -76.085938 42.582031 -78.242188 46.0625 -79.015625 C 49.175781 -79.734375 52.007812 -79.453125 54.5625 -78.171875 C 57.125 -76.890625 58.644531 -74.671875 59.125 -71.515625 C 59.476562 -69.210938 59.1875 -66.65625 58.25 -63.84375 C 57.3125 -61.03125 55.976562 -58.554688 54.25 -56.421875 C 52.519531 -54.296875 50.742188 -53.097656 48.921875 -52.828125 C 46.253906 -52.421875 44.382812 -52.695312 43.3125 -53.65625 C 42.238281 -54.613281 42.242188 -55.609375 43.328125 -56.640625 C 44.210938 -57.390625 45.128906 -58.707031 46.078125 -60.59375 C 47.023438 -62.476562 47.707031 -64.316406 48.125 -66.109375 C 48.539062 -67.910156 48.28125 -68.988281 47.34375 -69.34375 C 46.007812 -70.007812 43.9375 -68.976562 41.125 -66.25 C 38.3125 -63.53125 35.15625 -59.796875 31.65625 -55.046875 C 28.15625 -50.296875 24.65625 -45.175781 21.15625 -39.6875 C 18.03125 -34.875 15.28125 -30.050781 12.90625 -25.21875 C 10.539062 -20.394531 8.742188 -16.09375 7.515625 -12.3125 C 6.296875 -8.53125 5.832031 -5.671875 6.125 -3.734375 C 6.363281 -2.160156 7.03125 -1.457031 8.125 -1.625 C 9.570312 -1.84375 11.84375 -2.988281 14.9375 -5.0625 C 18.039062 -7.144531 21.335938 -9.566406 24.828125 -12.328125 C 28.328125 -15.085938 31.378906 -17.660156 33.984375 -20.046875 C 37.160156 -22.890625 39.625 -25.0625 41.375 -26.5625 C 43.132812 -28.070312 44.34375 -29.066406 45 -29.546875 C 46.25 -30.359375 46.582031 -30.253906 46 -29.234375 C 45.414062 -28.210938 44.816406 -27.21875 44.203125 -26.25 C 42.109375 -22.957031 39.429688 -19.359375 36.171875 -15.453125 C 32.921875 -11.546875 29.460938 -7.757812 25.796875 -4.09375 C 22.140625 -0.4375 18.570312 2.613281 15.09375 5.0625 C 11.625 7.519531 8.613281 8.941406 6.0625 9.328125 Z M 6.0625 9.328125 "/></g></g></g><g fill="#000000" fill-opacity="1"><g transform="translate(1318.459846, 695.431761)"><g><path d="M 44.640625 -78.609375 C 45.953125 -78.929688 47.695312 -79.253906 49.875 -79.578125 C 52.0625 -79.910156 54.085938 -80.066406 55.953125 -80.046875 C 57.828125 -80.023438 58.910156 -79.414062 59.203125 -78.21875 C 59.734375 -76.4375 59.710938 -74.757812 59.140625 -73.1875 C 58.566406 -71.613281 57.796875 -70.8125 56.828125 -70.78125 C 55.179688 -70.914062 52.179688 -70.800781 47.828125 -70.4375 C 43.484375 -70.082031 39.222656 -69.34375 35.046875 -68.21875 C 30.703125 -60.863281 26.578125 -53.507812 22.671875 -46.15625 C 18.765625 -38.800781 15.390625 -32.023438 12.546875 -25.828125 C 9.703125 -19.628906 7.625 -14.503906 6.3125 -10.453125 C 5.007812 -6.410156 4.84375 -4.023438 5.8125 -3.296875 C 6.394531 -2.765625 7.835938 -3.476562 10.140625 -5.4375 C 12.453125 -7.394531 15.191406 -9.984375 18.359375 -13.203125 C 21.535156 -16.429688 24.742188 -19.8125 27.984375 -23.34375 C 31.234375 -26.875 34.160156 -30.078125 36.765625 -32.953125 C 39.378906 -35.828125 41.222656 -37.78125 42.296875 -38.8125 C 43.492188 -39.976562 43.71875 -39.539062 42.96875 -37.5 C 42.21875 -35.46875 40.382812 -32.242188 37.46875 -27.828125 C 36.664062 -26.585938 35.316406 -24.644531 33.421875 -22 C 31.523438 -19.351562 29.300781 -16.410156 26.75 -13.171875 C 24.207031 -9.941406 21.554688 -6.78125 18.796875 -3.6875 C 16.046875 -0.601562 13.367188 1.96875 10.765625 4.03125 C 8.160156 6.101562 5.828125 7.296875 3.765625 7.609375 C 1.816406 7.910156 -0.160156 7.128906 -2.171875 5.265625 C -4.191406 3.398438 -5.378906 1.3125 -5.734375 -1 C -6.078125 -3.300781 -5.019531 -7.582031 -2.5625 -13.84375 C -0.101562 -20.101562 3.367188 -27.640625 7.859375 -36.453125 C 12.347656 -45.265625 17.421875 -54.753906 23.078125 -64.921875 C 21.890625 -64.609375 20.878906 -64.328125 20.046875 -64.078125 C 19.222656 -63.835938 18.394531 -63.585938 17.5625 -63.328125 C 15.875 -62.953125 14.179688 -63.253906 12.484375 -64.234375 C 10.785156 -65.222656 9.734375 -66.429688 9.328125 -67.859375 C 8.929688 -69.285156 9.609375 -70.316406 11.359375 -70.953125 C 13.816406 -71.960938 16.515625 -72.8125 19.453125 -73.5 C 22.390625 -74.1875 25.609375 -74.851562 29.109375 -75.5 L 30.71875 -78.359375 C 33.570312 -83.253906 36.738281 -88.726562 40.21875 -94.78125 C 43.707031 -100.832031 47.285156 -106.679688 50.953125 -112.328125 C 54.628906 -117.972656 58.1875 -122.757812 61.625 -126.6875 C 65.0625 -130.625 68.082031 -132.976562 70.6875 -133.75 C 72.351562 -134.238281 73.582031 -133.925781 74.375 -132.8125 C 75.164062 -131.695312 75.617188 -130.773438 75.734375 -130.046875 C 75.921875 -128.835938 74.878906 -126.289062 72.609375 -122.40625 C 70.335938 -118.519531 67.398438 -113.945312 63.796875 -108.6875 C 60.191406 -103.425781 56.414062 -98.078125 52.46875 -92.640625 C 48.519531 -87.203125 44.890625 -82.3125 41.578125 -77.96875 C 42.179688 -78.0625 42.722656 -78.171875 43.203125 -78.296875 C 43.679688 -78.429688 44.160156 -78.535156 44.640625 -78.609375 Z M 44.640625 -78.609375 "/></g></g></g><g transform="matrix(1, 0, 0, 1, 682, 942)"><g clip-path="url(#a245e49fc7)"><g fill="#000000" fill-opacity="1"><g transform="translate(8.656433, 63.750414)"><g><path d="M 19.4375 -20.75 L 15.09375 2.78125 L 8.609375 1.59375 L 12.953125 -21.9375 L 4.5625 -23.484375 L 5.65625 -29.359375 L 28.9375 -25.0625 L 27.84375 -19.1875 Z M 19.4375 -20.75 "/></g></g></g><g fill="#000000" fill-opacity="1"><g transform="translate(40.491372, 69.305522)"><g><path d="M 19.515625 -10.359375 L 16.34375 -21.203125 L 11.96875 -10.78125 Z M 30.03125 1.6875 L 22.96875 1.296875 L 21.15625 -4.84375 L 9.78125 -5.484375 L 7.28125 0.40625 L 0.21875 0.015625 L 14.03125 -29.15625 L 19.609375 -28.84375 Z M 30.03125 1.6875 "/></g></g></g><g fill="#000000" fill-opacity="1"><g transform="translate(78.894895, 70.711139)"><g><path d="M 2.640625 -0.171875 L 0.6875 -30.015625 L 7.265625 -30.4375 L 8.828125 -6.5625 L 19.53125 -7.265625 L 19.921875 -1.296875 Z M 2.640625 -0.171875 "/></g></g></g><g fill="#000000" fill-opacity="1"><g transform="translate(108.267114, 68.396922)"><g><path d="M 18.640625 -9.3125 L 19.671875 -3.421875 L 2.59375 -0.453125 L -2.53125 -29.921875 L 14.546875 -32.890625 L 15.578125 -26.984375 L 5 -25.140625 L 6.015625 -19.296875 L 16.15625 -21.0625 L 17.171875 -15.171875 L 7.03125 -13.40625 L 8.0625 -7.46875 Z M 18.640625 -9.3125 "/></g></g></g><g fill="#000000" fill-opacity="1"><g transform="translate(138.504118, 62.825518)"><g><path d="M 25.015625 -7.546875 L 18.703125 -5.640625 L 3.453125 -20.53125 L 8.84375 -2.671875 L 2.53125 -0.765625 L -6.109375 -29.390625 L 0.203125 -31.296875 L 15.453125 -16.421875 L 10.0625 -34.265625 L 16.375 -36.171875 Z M 25.015625 -7.546875 "/></g></g></g><g fill="#000000" fill-opacity="1"><g transform="translate(173.659983, 51.550961)"><g><path d="M 4.359375 -28.078125 L 14.03125 -6.203125 L 8 -3.53125 L -1.671875 -25.40625 L -9.46875 -21.96875 L -11.890625 -27.4375 L 9.75 -37 L 12.171875 -31.53125 Z M 4.359375 -28.078125 "/></g></g></g></g></g><g transform="matrix(1, 0, 0, 1, 582, 415)"><g clip-path="url(#aa162f9780)"><g fill="#000000" fill-opacity="1"><g transform="translate(26.099472, 101.663549)"><g><path d="M 9.921875 -11.25 C 10.523438 -11.613281 11.125 -12.097656 11.71875 -12.703125 C 12.3125 -13.304688 12.734375 -13.976562 12.984375 -14.71875 C 13.242188 -15.46875 13.148438 -16.222656 12.703125 -16.984375 C 12.285156 -17.691406 11.679688 -18.097656 10.890625 -18.203125 C 10.097656 -18.316406 9.175781 -18.253906 8.125 -18.015625 C 7.082031 -17.773438 5.960938 -17.460938 4.765625 -17.078125 C 3.578125 -16.703125 2.347656 -16.375 1.078125 -16.09375 C -0.179688 -15.8125 -1.414062 -15.6875 -2.625 -15.71875 C -3.832031 -15.75 -4.96875 -16.039062 -6.03125 -16.59375 C -7.09375 -17.15625 -8.023438 -18.117188 -8.828125 -19.484375 C -9.628906 -20.835938 -10.035156 -22.160156 -10.046875 -23.453125 C -10.054688 -24.753906 -9.789062 -26 -9.25 -27.1875 C -8.707031 -28.382812 -7.953125 -29.476562 -6.984375 -30.46875 C -6.023438 -31.457031 -4.96875 -32.289062 -3.8125 -32.96875 C -2.050781 -34.007812 -0.234375 -34.707031 1.640625 -35.0625 C 3.515625 -35.414062 5.289062 -35.28125 6.96875 -34.65625 C 8.65625 -34.03125 10.097656 -32.742188 11.296875 -30.796875 L 5.8125 -27.5625 C 4.863281 -28.820312 3.847656 -29.476562 2.765625 -29.53125 C 1.679688 -29.582031 0.429688 -29.191406 -0.984375 -28.359375 C -1.515625 -28.046875 -2.023438 -27.625 -2.515625 -27.09375 C -3.003906 -26.570312 -3.34375 -25.992188 -3.53125 -25.359375 C -3.71875 -24.722656 -3.617188 -24.078125 -3.234375 -23.421875 C -2.847656 -22.765625 -2.269531 -22.40625 -1.5 -22.34375 C -0.726562 -22.28125 0.171875 -22.378906 1.203125 -22.640625 C 2.234375 -22.910156 3.34375 -23.242188 4.53125 -23.640625 C 5.726562 -24.046875 6.945312 -24.390625 8.1875 -24.671875 C 9.4375 -24.960938 10.671875 -25.085938 11.890625 -25.046875 C 13.109375 -25.003906 14.253906 -24.6875 15.328125 -24.09375 C 16.410156 -23.5 17.367188 -22.492188 18.203125 -21.078125 C 19.085938 -19.566406 19.539062 -18.101562 19.5625 -16.6875 C 19.59375 -15.269531 19.28125 -13.9375 18.625 -12.6875 C 17.976562 -11.445312 17.109375 -10.296875 16.015625 -9.234375 C 14.929688 -8.179688 13.726562 -7.265625 12.40625 -6.484375 C 10.507812 -5.367188 8.539062 -4.644531 6.5 -4.3125 C 4.46875 -3.988281 2.546875 -4.191406 0.734375 -4.921875 C -1.078125 -5.660156 -2.613281 -7.078125 -3.875 -9.171875 L 1.890625 -12.5625 C 2.878906 -11.0625 4.113281 -10.257812 5.59375 -10.15625 C 7.082031 -10.0625 8.523438 -10.425781 9.921875 -11.25 Z M 9.921875 -11.25 "/></g></g></g><g fill="#000000" fill-opacity="1"><g transform="translate(54.555813, 85.38525)"><g><path d="M 4.5 -28.046875 L 14.0625 -6.125 L 8.015625 -3.5 L -1.546875 -25.421875 L -9.359375 -22.015625 L -11.75 -27.515625 L 9.953125 -36.96875 L 12.34375 -31.46875 Z M 4.5 -28.046875 "/></g></g></g><g fill="#000000" fill-opacity="1"><g transform="translate(81.360763, 73.884592)"><g><path d="M 10.78125 -34.375 L 17.125 -36.25 L 22.296875 -18.75 C 23.429688 -14.925781 23.242188 -11.726562 21.734375 -9.15625 C 20.234375 -6.59375 17.613281 -4.757812 13.875 -3.65625 C 10.132812 -2.539062 6.9375 -2.648438 4.28125 -3.984375 C 1.625 -5.328125 -0.269531 -7.910156 -1.40625 -11.734375 L -6.578125 -29.234375 L -0.265625 -31.109375 L 4.640625 -14.546875 C 5.222656 -12.578125 6.0625 -11.164062 7.15625 -10.3125 C 8.25 -9.457031 9.863281 -9.347656 12 -9.984375 C 14.15625 -10.617188 15.453125 -11.585938 15.890625 -12.890625 C 16.335938 -14.203125 16.269531 -15.84375 15.6875 -17.8125 Z M 10.78125 -34.375 "/></g></g></g><g fill="#000000" fill-opacity="1"><g transform="translate(113.724994, 64.66847)"><g><path d="M 8.09375 -7.421875 L 10.03125 -7.734375 C 11.707031 -7.992188 13.113281 -8.613281 14.25 -9.59375 C 15.382812 -10.570312 16.203125 -11.785156 16.703125 -13.234375 C 17.203125 -14.679688 17.320312 -16.21875 17.0625 -17.84375 C 16.800781 -19.5 16.210938 -20.925781 15.296875 -22.125 C 14.378906 -23.332031 13.226562 -24.21875 11.84375 -24.78125 C 10.457031 -25.351562 8.925781 -25.507812 7.25 -25.25 L 5.3125 -24.9375 Z M -2.078125 -29.9375 L 6.703125 -31.34375 C 8.773438 -31.664062 10.757812 -31.59375 12.65625 -31.125 C 14.5625 -30.65625 16.285156 -29.859375 17.828125 -28.734375 C 19.378906 -27.617188 20.664062 -26.222656 21.6875 -24.546875 C 22.707031 -22.878906 23.382812 -21 23.71875 -18.90625 C 24.050781 -16.820312 23.988281 -14.820312 23.53125 -12.90625 C 23.082031 -10.988281 22.300781 -9.257812 21.1875 -7.71875 C 20.082031 -6.175781 18.691406 -4.882812 17.015625 -3.84375 C 15.335938 -2.8125 13.460938 -2.132812 11.390625 -1.8125 L 2.609375 -0.40625 Z M -2.078125 -29.9375 "/></g></g></g><g fill="#000000" fill-opacity="1"><g transform="translate(146.415618, 59.94927)"><g><path d="M 19.71875 -6.75 L 19.953125 -0.765625 L 2.640625 -0.09375 L 1.5 -29.984375 L 18.8125 -30.65625 L 19.03125 -24.671875 L 8.3125 -24.265625 L 8.546875 -18.328125 L 18.828125 -18.71875 L 19.0625 -12.734375 L 8.78125 -12.34375 L 9 -6.34375 Z M 19.71875 -6.75 "/></g></g></g><g fill="#000000" fill-opacity="1"><g transform="translate(174.109516, 59.012115)"><g><path d="M 26.03125 2.15625 L 19.46875 1.609375 L 10.734375 -17.828125 L 9.203125 0.765625 L 2.625 0.21875 L 5.09375 -29.578125 L 11.671875 -29.03125 L 20.390625 -9.625 L 21.9375 -28.1875 L 28.5 -27.640625 Z M 26.03125 2.15625 "/></g></g></g><g fill="#000000" fill-opacity="1"><g transform="translate(207.76783, 62.24266)"><g><path d="M 19.90625 -20.28125 L 15.015625 3.140625 L 8.5625 1.78125 L 13.453125 -21.640625 L 5.109375 -23.375 L 6.328125 -29.234375 L 29.5 -24.390625 L 28.28125 -18.53125 Z M 19.90625 -20.28125 "/></g></g></g></g></g><g transform="matrix(1, 0, 0, 1, 1121, 733)"><g clip-path="url(#8922dc8196)"><g fill="#000000" fill-opacity="1"><g transform="translate(6.526371, 68.282111)"><g><path d="M 15.296875 -7.546875 L 16.109375 -2.71875 L 2.125 -0.359375 L -1.9375 -24.5 L 12.046875 -26.859375 L 12.859375 -22.03125 L 4.203125 -20.5625 L 5.015625 -15.765625 L 13.328125 -17.171875 L 14.140625 -12.34375 L 5.828125 -10.9375 L 6.640625 -6.078125 Z M 15.296875 -7.546875 "/></g></g></g><g fill="#000000" fill-opacity="1"><g transform="translate(30.099118, 64.315827)"><g><path d="M 10.875 -5.703125 C 11.445312 -5.796875 12.046875 -5.984375 12.671875 -6.265625 C 13.304688 -6.554688 13.828125 -6.945312 14.234375 -7.4375 C 14.648438 -7.9375 14.800781 -8.546875 14.6875 -9.265625 C 14.570312 -9.921875 14.222656 -10.40625 13.640625 -10.71875 C 13.066406 -11.039062 12.34375 -11.257812 11.46875 -11.375 C 10.601562 -11.5 9.660156 -11.59375 8.640625 -11.65625 C 7.617188 -11.71875 6.582031 -11.820312 5.53125 -11.96875 C 4.488281 -12.125 3.507812 -12.390625 2.59375 -12.765625 C 1.675781 -13.148438 0.894531 -13.710938 0.25 -14.453125 C -0.394531 -15.203125 -0.828125 -16.21875 -1.046875 -17.5 C -1.253906 -18.75 -1.175781 -19.875 -0.8125 -20.875 C -0.445312 -21.875 0.113281 -22.75 0.875 -23.5 C 1.644531 -24.25 2.539062 -24.859375 3.5625 -25.328125 C 4.59375 -25.804688 5.648438 -26.140625 6.734375 -26.328125 C 8.390625 -26.609375 9.984375 -26.601562 11.515625 -26.3125 C 13.046875 -26.03125 14.363281 -25.40625 15.46875 -24.4375 C 16.570312 -23.476562 17.300781 -22.082031 17.65625 -20.25 L 12.5 -19.375 C 12.15625 -20.601562 11.570312 -21.394531 10.75 -21.75 C 9.9375 -22.113281 8.867188 -22.1875 7.546875 -21.96875 C 7.046875 -21.882812 6.53125 -21.710938 6 -21.453125 C 5.476562 -21.191406 5.050781 -20.84375 4.71875 -20.40625 C 4.382812 -19.976562 4.269531 -19.457031 4.375 -18.84375 C 4.476562 -18.226562 4.816406 -17.785156 5.390625 -17.515625 C 5.960938 -17.253906 6.679688 -17.070312 7.546875 -16.96875 C 8.410156 -16.875 9.359375 -16.800781 10.390625 -16.75 C 11.421875 -16.695312 12.453125 -16.597656 13.484375 -16.453125 C 14.515625 -16.316406 15.488281 -16.050781 16.40625 -15.65625 C 17.320312 -15.269531 18.109375 -14.691406 18.765625 -13.921875 C 19.421875 -13.160156 19.859375 -12.117188 20.078125 -10.796875 C 20.316406 -9.359375 20.234375 -8.097656 19.828125 -7.015625 C 19.429688 -5.929688 18.804688 -5.003906 17.953125 -4.234375 C 17.097656 -3.472656 16.09375 -2.847656 14.9375 -2.359375 C 13.789062 -1.878906 12.609375 -1.539062 11.390625 -1.34375 C 9.609375 -1.039062 7.890625 -1.0625 6.234375 -1.40625 C 4.585938 -1.75 3.175781 -2.460938 2 -3.546875 C 0.832031 -4.640625 0.0703125 -6.164062 -0.28125 -8.125 L 5.109375 -9.046875 C 5.429688 -7.617188 6.144531 -6.648438 7.25 -6.140625 C 8.363281 -5.628906 9.570312 -5.484375 10.875 -5.703125 Z M 10.875 -5.703125 "/></g></g></g><g fill="#000000" fill-opacity="1"><g transform="translate(57.790018, 59.656635)"><g><path d="M 9.140625 -21.390625 L 12.390625 -2.078125 L 7.0625 -1.1875 L 3.8125 -20.5 L -3.0625 -19.34375 L -3.875 -24.171875 L 15.21875 -27.390625 L 16.03125 -22.5625 Z M 9.140625 -21.390625 "/></g></g></g><g fill="#000000" fill-opacity="1"><g transform="translate(82.569813, 55.487257)"><g><path d="M 1.390625 -3.046875 C 1.234375 -3.921875 1.40625 -4.707031 1.90625 -5.40625 C 2.414062 -6.113281 3.113281 -6.546875 4 -6.703125 C 4.84375 -6.835938 5.617188 -6.65625 6.328125 -6.15625 C 7.046875 -5.65625 7.484375 -4.96875 7.640625 -4.09375 C 7.773438 -3.238281 7.585938 -2.457031 7.078125 -1.75 C 6.566406 -1.039062 5.890625 -0.617188 5.046875 -0.484375 C 4.160156 -0.328125 3.363281 -0.5 2.65625 -1 C 1.945312 -1.507812 1.523438 -2.191406 1.390625 -3.046875 Z M 1.390625 -3.046875 "/></g></g></g><g fill="#000000" fill-opacity="1"><g transform="translate(97.83529, 52.918731)"><g/></g></g><g fill="#000000" fill-opacity="1"><g transform="translate(112.03569, 50.529411)"><g><path d="M 16.9375 -2.84375 L -0.546875 0.09375 L 6.953125 -13.734375 C 7.210938 -14.179688 7.492188 -14.675781 7.796875 -15.21875 C 8.097656 -15.757812 8.335938 -16.316406 8.515625 -16.890625 C 8.703125 -17.472656 8.753906 -18.035156 8.671875 -18.578125 C 8.523438 -19.453125 8.148438 -20.09375 7.546875 -20.5 C 6.953125 -20.914062 6.253906 -21.054688 5.453125 -20.921875 C 4.578125 -20.773438 3.914062 -20.367188 3.46875 -19.703125 C 3.03125 -19.046875 2.890625 -18.09375 3.046875 -16.84375 L -1.96875 -16 C -2.175781 -17.5625 -2.085938 -19.039062 -1.703125 -20.4375 C -1.316406 -21.84375 -0.609375 -23.039062 0.421875 -24.03125 C 1.460938 -25.03125 2.84375 -25.675781 4.5625 -25.96875 C 6.132812 -26.226562 7.566406 -26.128906 8.859375 -25.671875 C 10.148438 -25.222656 11.21875 -24.460938 12.0625 -23.390625 C 12.914062 -22.316406 13.476562 -21 13.75 -19.4375 C 13.945312 -18.226562 13.90625 -17.09375 13.625 -16.03125 C 13.351562 -14.976562 12.957031 -13.972656 12.4375 -13.015625 C 11.914062 -12.054688 11.378906 -11.078125 10.828125 -10.078125 L 8.796875 -6.453125 L 16.125 -7.671875 Z M 16.9375 -2.84375 "/></g></g></g><g fill="#000000" fill-opacity="1"><g transform="translate(135.714927, 46.54521)"><g><path d="M 7.625 -21.5 C 6.769531 -21.351562 6.097656 -20.988281 5.609375 -20.40625 C 5.128906 -19.820312 4.789062 -19.109375 4.59375 -18.265625 C 4.394531 -17.429688 4.300781 -16.554688 4.3125 -15.640625 C 4.332031 -14.734375 4.40625 -13.898438 4.53125 -13.140625 C 4.675781 -12.304688 4.890625 -11.457031 5.171875 -10.59375 C 5.453125 -9.738281 5.820312 -8.953125 6.28125 -8.234375 C 6.738281 -7.523438 7.289062 -6.976562 7.9375 -6.59375 C 8.59375 -6.21875 9.347656 -6.101562 10.203125 -6.25 C 11.054688 -6.394531 11.71875 -6.75 12.1875 -7.3125 C 12.664062 -7.875 13.003906 -8.566406 13.203125 -9.390625 C 13.398438 -10.222656 13.492188 -11.085938 13.484375 -11.984375 C 13.484375 -12.878906 13.414062 -13.726562 13.28125 -14.53125 C 13.15625 -15.3125 12.953125 -16.132812 12.671875 -17 C 12.398438 -17.875 12.03125 -18.679688 11.5625 -19.421875 C 11.101562 -20.160156 10.550781 -20.726562 9.90625 -21.125 C 9.257812 -21.519531 8.5 -21.644531 7.625 -21.5 Z M 11.015625 -1.40625 C 9.617188 -1.164062 8.335938 -1.222656 7.171875 -1.578125 C 6.015625 -1.941406 4.984375 -2.503906 4.078125 -3.265625 C 3.179688 -4.023438 2.394531 -4.910156 1.71875 -5.921875 C 1.050781 -6.929688 0.507812 -7.976562 0.09375 -9.0625 C -0.3125 -10.144531 -0.597656 -11.191406 -0.765625 -12.203125 C -0.910156 -13.078125 -0.976562 -14.082031 -0.96875 -15.21875 C -0.957031 -16.351562 -0.820312 -17.515625 -0.5625 -18.703125 C -0.300781 -19.890625 0.128906 -21.015625 0.734375 -22.078125 C 1.335938 -23.148438 2.132812 -24.066406 3.125 -24.828125 C 4.113281 -25.585938 5.34375 -26.09375 6.8125 -26.34375 C 8.269531 -26.582031 9.59375 -26.503906 10.78125 -26.109375 C 11.96875 -25.722656 13.019531 -25.125 13.9375 -24.3125 C 14.851562 -23.5 15.628906 -22.570312 16.265625 -21.53125 C 16.898438 -20.5 17.410156 -19.445312 17.796875 -18.375 C 18.191406 -17.3125 18.460938 -16.34375 18.609375 -15.46875 C 18.773438 -14.457031 18.84375 -13.367188 18.8125 -12.203125 C 18.78125 -11.046875 18.609375 -9.878906 18.296875 -8.703125 C 17.992188 -7.535156 17.535156 -6.441406 16.921875 -5.421875 C 16.316406 -4.410156 15.53125 -3.546875 14.5625 -2.828125 C 13.59375 -2.109375 12.410156 -1.632812 11.015625 -1.40625 Z M 11.015625 -1.40625 "/></g></g></g><g fill="#000000" fill-opacity="1"><g transform="translate(162.908816, 41.969643)"><g><path d="M 16.9375 -2.84375 L -0.546875 0.09375 L 6.953125 -13.734375 C 7.210938 -14.179688 7.492188 -14.675781 7.796875 -15.21875 C 8.097656 -15.757812 8.335938 -16.316406 8.515625 -16.890625 C 8.703125 -17.472656 8.753906 -18.035156 8.671875 -18.578125 C 8.523438 -19.453125 8.148438 -20.09375 7.546875 -20.5 C 6.953125 -20.914062 6.253906 -21.054688 5.453125 -20.921875 C 4.578125 -20.773438 3.914062 -20.367188 3.46875 -19.703125 C 3.03125 -19.046875 2.890625 -18.09375 3.046875 -16.84375 L -1.96875 -16 C -2.175781 -17.5625 -2.085938 -19.039062 -1.703125 -20.4375 C -1.316406 -21.84375 -0.609375 -23.039062 0.421875 -24.03125 C 1.460938 -25.03125 2.84375 -25.675781 4.5625 -25.96875 C 6.132812 -26.226562 7.566406 -26.128906 8.859375 -25.671875 C 10.148438 -25.222656 11.21875 -24.460938 12.0625 -23.390625 C 12.914062 -22.316406 13.476562 -21 13.75 -19.4375 C 13.945312 -18.226562 13.90625 -17.09375 13.625 -16.03125 C 13.351562 -14.976562 12.957031 -13.972656 12.4375 -13.015625 C 11.914062 -12.054688 11.378906 -11.078125 10.828125 -10.078125 L 8.796875 -6.453125 L 16.125 -7.671875 Z M 16.9375 -2.84375 "/></g></g></g><g fill="#000000" fill-opacity="1"><g transform="translate(186.588052, 37.985442)"><g><path d="M 8.125 -13.28125 C 7.101562 -13.101562 6.304688 -12.617188 5.734375 -11.828125 C 5.171875 -11.035156 4.972656 -10.15625 5.140625 -9.1875 C 5.296875 -8.238281 5.769531 -7.476562 6.5625 -6.90625 C 7.363281 -6.34375 8.273438 -6.148438 9.296875 -6.328125 C 10.296875 -6.492188 11.085938 -6.972656 11.671875 -7.765625 C 12.253906 -8.566406 12.46875 -9.441406 12.3125 -10.390625 C 12.144531 -11.359375 11.65625 -12.125 10.84375 -12.6875 C 10.03125 -13.25 9.125 -13.445312 8.125 -13.28125 Z M 10.140625 -1.34375 C 8.535156 -1.070312 6.992188 -1.1875 5.515625 -1.6875 C 4.046875 -2.195312 2.804688 -3.023438 1.796875 -4.171875 C 0.796875 -5.316406 0.160156 -6.691406 -0.109375 -8.296875 C -0.285156 -9.359375 -0.242188 -10.40625 0.015625 -11.4375 C 0.285156 -12.476562 0.632812 -13.4375 1.0625 -14.3125 L 6.71875 -25.953125 L 12.953125 -27 L 8.671875 -18.390625 C 10.128906 -18.460938 11.484375 -18.195312 12.734375 -17.59375 C 13.984375 -17 15.035156 -16.148438 15.890625 -15.046875 C 16.742188 -13.953125 17.289062 -12.691406 17.53125 -11.265625 C 17.800781 -9.660156 17.632812 -8.148438 17.03125 -6.734375 C 16.425781 -5.316406 15.523438 -4.128906 14.328125 -3.171875 C 13.128906 -2.210938 11.734375 -1.601562 10.140625 -1.34375 Z M 10.140625 -1.34375 "/></g></g></g></g></g></svg>