<svg xmlns="http://www.w3.org/2000/svg" xmlns:xlink="http://www.w3.org/1999/xlink" viewBox="490 318 520 792" preserveAspectRatio="xMidYMid meet" version="1.0"><defs><clipPath id="5cea7555b5"><rect x="0" width="474" y="0" height="242"/></clipPath><clipPath id="ac7a19d5da"><rect x="0" width="239" y="0" height="47"/></clipPath><clipPath id="a4d1a69585"><path d="M 754.605469 438.160156 L 980.460938 438.160156 L 980.460938 921.3125 L 754.605469 921.3125 Z M 754.605469 438.160156 " clip-rule="nonzero"/></clipPath><clipPath id="ecb9ed47df"><path d="M 519.210938 438 L 746 438 L 746 921.3125 L 519.210938 921.3125 Z M 519.210938 438 " clip-rule="nonzero"/></clipPath><clipPath id="06e1628dc0"><path d="M 707 345.3125 L 792 345.3125 L 792 431 L 707 431 Z M 707 345.3125 " clip-rule="nonzero"/></clipPath></defs><g transform="matrix(1, 0, 0, 1, 513, 890)"><g clip-path="url(#5cea7555b5)"><g fill="#000000" fill-opacity="1"><g transform="translate(3.2211, 171.561611)"><g><path d="M 56.890625 -1.390625 C 54.722656 -0.671875 51.910156 -0.0546875 48.453125 0.453125 C 45.003906 0.972656 41.734375 1.234375 38.640625 1.234375 C 28.953125 1.234375 21.84375 -0.359375 17.3125 -3.546875 C 12.78125 -6.742188 9.765625 -12.050781 8.265625 -19.46875 C 6.773438 -26.894531 6.03125 -38.132812 6.03125 -53.1875 C 6.03125 -68.125 6.800781 -79.328125 8.34375 -86.796875 C 9.894531 -94.273438 12.960938 -99.609375 17.546875 -102.796875 C 22.128906 -105.992188 29.160156 -107.59375 38.640625 -107.59375 C 42.046875 -107.59375 45.421875 -107.359375 48.765625 -106.890625 C 52.117188 -106.429688 54.722656 -105.84375 56.578125 -105.125 L 56.578125 -87.8125 C 50.597656 -88.53125 46.066406 -88.890625 42.984375 -88.890625 C 37.722656 -88.890625 34.085938 -88.191406 32.078125 -86.796875 C 30.066406 -85.410156 28.773438 -82.445312 28.203125 -77.90625 C 27.640625 -73.375 27.359375 -65.132812 27.359375 -53.1875 C 27.359375 -41.226562 27.640625 -32.976562 28.203125 -28.4375 C 28.773438 -23.90625 30.066406 -20.941406 32.078125 -19.546875 C 34.085938 -18.160156 37.722656 -17.46875 42.984375 -17.46875 C 47.722656 -17.46875 52.359375 -17.828125 56.890625 -18.546875 Z M 56.890625 -1.390625 "/></g></g></g><g fill="#000000" fill-opacity="1"><g transform="translate(64.437181, 171.561611)"><g><path d="M 54.578125 0 L 50.390625 -21.796875 L 26.59375 -21.796875 L 22.421875 0 L 1.234375 0 L 23.1875 -106.359375 L 54.265625 -106.359375 L 76.21875 0 Z M 38.953125 -86.265625 L 38.03125 -86.265625 L 29.6875 -40.1875 L 47.15625 -40.1875 Z M 38.953125 -86.265625 "/></g></g></g><g fill="#000000" fill-opacity="1"><g transform="translate(141.884782, 171.561611)"><g><path d="M 80.078125 0 L 80.078125 -78.375 L 79.15625 -78.375 L 63.84375 0 L 44.21875 0 L 29.21875 -78.375 L 27.984375 -78.375 L 27.984375 0 L 8.03125 0 L 8.03125 -106.359375 L 40.1875 -106.359375 L 54.109375 -32.78125 L 55.1875 -32.78125 L 68.953125 -106.359375 L 100.640625 -106.359375 L 100.640625 0 Z M 80.078125 0 "/></g></g></g><g fill="#000000" fill-opacity="1"><g transform="translate(250.558755, 171.561611)"><g><path d="M 8.03125 -106.359375 L 43.125 -106.359375 C 50.65625 -106.359375 56.351562 -105.019531 60.21875 -102.34375 C 64.082031 -99.664062 66.679688 -95.773438 68.015625 -90.671875 C 69.359375 -85.566406 70.03125 -78.789062 70.03125 -70.34375 C 70.03125 -62.195312 69.410156 -55.570312 68.171875 -50.46875 C 66.941406 -45.375 64.367188 -41.359375 60.453125 -38.421875 C 56.535156 -35.484375 50.710938 -34.015625 42.984375 -34.015625 L 29.375 -34.015625 L 29.375 0 L 8.03125 0 Z M 37.71875 -52.71875 C 41.226562 -52.71875 43.703125 -53.128906 45.140625 -53.953125 C 46.585938 -54.773438 47.539062 -56.34375 48 -58.65625 C 48.46875 -60.976562 48.703125 -64.875 48.703125 -70.34375 C 48.703125 -75.800781 48.46875 -79.660156 48 -81.921875 C 47.539062 -84.191406 46.613281 -85.710938 45.21875 -86.484375 C 43.820312 -87.265625 41.375 -87.65625 37.875 -87.65625 L 29.375 -87.65625 L 29.375 -52.71875 Z M 37.71875 -52.71875 "/></g></g></g><g fill="#000000" fill-opacity="1"><g transform="translate(323.987123, 171.561611)"><g><path d="M 70.796875 -106.359375 L 70.796875 -47.15625 C 70.796875 -33.132812 70.203125 -22.953125 69.015625 -16.609375 C 67.835938 -10.273438 65.054688 -5.71875 60.671875 -2.9375 C 56.296875 -0.15625 49.109375 1.234375 39.109375 1.234375 C 29.109375 1.234375 21.914062 -0.15625 17.53125 -2.9375 C 13.15625 -5.71875 10.375 -10.273438 9.1875 -16.609375 C 8.007812 -22.953125 7.421875 -33.132812 7.421875 -47.15625 L 7.421875 -106.359375 L 28.59375 -106.359375 L 28.59375 -40.046875 C 28.59375 -32.515625 28.773438 -27.332031 29.140625 -24.5 C 29.503906 -21.664062 30.378906 -19.785156 31.765625 -18.859375 C 33.160156 -17.929688 35.609375 -17.46875 39.109375 -17.46875 C 42.617188 -17.46875 45.039062 -17.929688 46.375 -18.859375 C 47.71875 -19.785156 48.566406 -21.640625 48.921875 -24.421875 C 49.285156 -27.203125 49.46875 -32.410156 49.46875 -40.046875 L 49.46875 -106.359375 Z M 70.796875 -106.359375 "/></g></g></g><g fill="#000000" fill-opacity="1"><g transform="translate(402.207649, 171.561611)"><g><path d="M 34.171875 1.234375 C 29.835938 1.234375 25.117188 1 20.015625 0.53125 C 14.921875 0.0703125 10.414062 -0.566406 6.5 -1.390625 L 6.5 -18.703125 C 17.007812 -17.878906 24.273438 -17.46875 28.296875 -17.46875 C 31.898438 -17.46875 34.628906 -17.671875 36.484375 -18.078125 C 38.335938 -18.492188 39.726562 -19.21875 40.65625 -20.25 C 41.476562 -21.070312 42.019531 -22.226562 42.28125 -23.71875 C 42.539062 -25.21875 42.671875 -27.359375 42.671875 -30.140625 C 42.671875 -33.953125 42.460938 -36.65625 42.046875 -38.25 C 41.640625 -39.851562 40.789062 -41.039062 39.5 -41.8125 C 38.207031 -42.59375 35.96875 -43.289062 32.78125 -43.90625 L 18.234375 -46.53125 C 13.085938 -47.457031 9.535156 -50.289062 7.578125 -55.03125 C 5.617188 -59.769531 4.640625 -66.625 4.640625 -75.59375 C 4.640625 -84.351562 5.898438 -91.050781 8.421875 -95.6875 C 10.953125 -100.332031 14.429688 -103.476562 18.859375 -105.125 C 23.296875 -106.769531 28.914062 -107.59375 35.71875 -107.59375 C 40.457031 -107.59375 45.015625 -107.28125 49.390625 -106.65625 C 53.773438 -106.039062 57.359375 -105.425781 60.140625 -104.8125 L 60.140625 -87.5 C 54.566406 -88.425781 48.332031 -88.890625 41.4375 -88.890625 C 37.71875 -88.890625 34.851562 -88.734375 32.84375 -88.421875 C 30.84375 -88.117188 29.375 -87.554688 28.4375 -86.734375 C 27.3125 -85.898438 26.59375 -84.710938 26.28125 -83.171875 C 25.96875 -81.628906 25.8125 -79.363281 25.8125 -76.375 C 25.8125 -73.175781 25.992188 -70.851562 26.359375 -69.40625 C 26.722656 -67.96875 27.367188 -66.9375 28.296875 -66.3125 C 29.222656 -65.695312 30.816406 -65.1875 33.078125 -64.78125 L 46.6875 -62.296875 C 50.289062 -61.785156 53.351562 -60.675781 55.875 -58.96875 C 58.40625 -57.269531 60.394531 -54.460938 61.84375 -50.546875 C 63.28125 -46.429688 64 -40.609375 64 -33.078125 C 64 -23.285156 62.8125 -15.914062 60.4375 -10.96875 C 58.070312 -6.03125 54.800781 -2.757812 50.625 -1.15625 C 46.457031 0.4375 40.972656 1.234375 34.171875 1.234375 Z M 34.171875 1.234375 "/></g></g></g></g></g><g transform="matrix(1, 0, 0, 1, 632, 1079)"><g clip-path="url(#ac7a19d5da)"><g fill="#000000" fill-opacity="1"><g transform="translate(3.794796, 37.240496)"><g><path d="M 0.890625 -14.578125 C 0.890625 -18.953125 2.25 -22.539062 4.96875 -25.34375 C 7.664062 -28.113281 11.28125 -29.5 15.8125 -29.5 L 15.734375 -29.53125 C 18.054688 -29.53125 21.066406 -28.835938 24.765625 -27.453125 L 24.765625 -20.609375 L 22.8125 -20.609375 C 22.289062 -20.609375 21.992188 -20.851562 21.921875 -21.34375 C 21.890625 -21.425781 21.835938 -22.035156 21.765625 -23.171875 C 21.734375 -23.472656 21.703125 -23.765625 21.671875 -24.046875 C 21.648438 -24.335938 21.628906 -24.554688 21.609375 -24.703125 C 21.585938 -24.859375 21.578125 -24.957031 21.578125 -25 C 19.328125 -25.71875 17.28125 -26.078125 15.4375 -26.078125 C 12.332031 -26.078125 9.804688 -25.054688 7.859375 -23.015625 C 5.878906 -20.878906 4.890625 -18.066406 4.890625 -14.578125 C 4.890625 -11.035156 5.863281 -8.210938 7.8125 -6.109375 C 9.65625 -4.109375 12.0625 -3.109375 15.03125 -3.109375 C 16.707031 -3.109375 17.992188 -3.265625 18.890625 -3.578125 C 20.335938 -4.117188 21.53125 -4.828125 22.46875 -5.703125 C 22.726562 -5.921875 22.945312 -6.03125 23.125 -6.03125 C 23.40625 -6.03125 23.625 -5.945312 23.78125 -5.78125 L 25.34375 -4.078125 C 22.8125 -1.148438 19.300781 0.3125 14.8125 0.3125 C 10.625 0.3125 7.265625 -1.070312 4.734375 -3.84375 C 2.171875 -6.632812 0.890625 -10.210938 0.890625 -14.578125 Z M 0.890625 -14.578125 "/></g></g></g><g fill="#000000" fill-opacity="1"><g transform="translate(35.187219, 37.240496)"><g><path d="M 1.953125 -8.515625 C 1.242188 -10.359375 0.890625 -12.363281 0.890625 -14.53125 C 0.890625 -16.707031 1.242188 -18.71875 1.953125 -20.5625 C 2.640625 -22.394531 3.617188 -23.972656 4.890625 -25.296875 C 6.160156 -26.617188 7.679688 -27.644531 9.453125 -28.375 C 11.253906 -29.125 13.207031 -29.5 15.3125 -29.5 C 17.425781 -29.5 19.382812 -29.125 21.1875 -28.375 C 23 -27.632812 24.515625 -26.625 25.734375 -25.34375 C 27.003906 -24.007812 27.988281 -22.429688 28.6875 -20.609375 C 29.363281 -18.828125 29.703125 -16.816406 29.703125 -14.578125 L 29.65625 -14.5 C 29.65625 -12.28125 29.316406 -10.285156 28.640625 -8.515625 C 27.953125 -6.679688 26.972656 -5.101562 25.703125 -3.78125 C 24.453125 -2.476562 22.945312 -1.460938 21.1875 -0.734375 C 19.34375 0.015625 17.382812 0.390625 15.3125 0.390625 C 13.25 0.390625 11.296875 0.015625 9.453125 -0.734375 C 7.628906 -1.472656 6.109375 -2.488281 4.890625 -3.78125 C 3.617188 -5.101562 2.640625 -6.679688 1.953125 -8.515625 Z M 4.890625 -14.5 C 4.890625 -12.707031 5.132812 -11.101562 5.625 -9.6875 C 6.101562 -8.3125 6.804688 -7.117188 7.734375 -6.109375 C 8.648438 -5.109375 9.738281 -4.351562 11 -3.84375 C 12.320312 -3.289062 13.742188 -3.015625 15.265625 -3.015625 C 16.796875 -3.015625 18.222656 -3.289062 19.546875 -3.84375 C 20.804688 -4.351562 21.894531 -5.109375 22.8125 -6.109375 C 23.695312 -7.078125 24.382812 -8.269531 24.875 -9.6875 C 25.375 -11.101562 25.625 -12.707031 25.625 -14.5 L 25.578125 -14.5 C 25.578125 -16.3125 25.332031 -17.929688 24.84375 -19.359375 C 24.3125 -20.867188 23.632812 -22.070312 22.8125 -22.96875 C 21.914062 -23.945312 20.828125 -24.695312 19.546875 -25.21875 C 18.285156 -25.738281 16.847656 -26 15.234375 -26 C 13.671875 -26 12.257812 -25.738281 11 -25.21875 C 9.726562 -24.695312 8.640625 -23.945312 7.734375 -22.96875 C 6.816406 -21.976562 6.113281 -20.769531 5.625 -19.34375 C 5.132812 -17.925781 4.890625 -16.3125 4.890625 -14.5 Z M 4.890625 -14.5 "/></g></g></g><g fill="#000000" fill-opacity="1"><g transform="translate(71.431123, 37.240496)"><g><path d="M 1.390625 0.046875 L 1.390625 -1.703125 C 1.390625 -2.117188 1.585938 -2.367188 1.984375 -2.453125 L 4.3125 -2.921875 L 4.3125 -26.15625 C 3 -26.394531 2.222656 -26.550781 1.984375 -26.625 C 1.585938 -26.707031 1.390625 -26.96875 1.390625 -27.40625 L 1.390625 -29.15625 L 6.34375 -29.15625 C 6.695312 -29.15625 6.957031 -29.117188 7.125 -29.046875 C 7.25 -28.972656 7.453125 -28.796875 7.734375 -28.515625 L 24.609375 -6.53125 L 24.609375 -6.4375 C 24.554688 -6.820312 24.53125 -7.5 24.53125 -8.46875 L 24.53125 -26.15625 C 24.0625 -26.21875 23.625 -26.285156 23.21875 -26.359375 C 22.8125 -26.429688 22.484375 -26.492188 22.234375 -26.546875 C 21.992188 -26.597656 21.863281 -26.625 21.84375 -26.625 C 21.40625 -26.71875 21.1875 -26.96875 21.1875 -27.375 L 21.1875 -29.15625 L 30.953125 -29.15625 L 30.953125 -27.375 C 30.953125 -26.957031 30.738281 -26.707031 30.3125 -26.625 L 27.984375 -26.15625 L 27.984375 0.046875 L 26 0.046875 C 25.4375 0.046875 24.972656 -0.1875 24.609375 -0.65625 L 7.703125 -22.65625 C 7.753906 -22.1875 7.78125 -21.554688 7.78125 -20.765625 L 7.78125 -2.921875 C 8.613281 -2.804688 9.519531 -2.648438 10.5 -2.453125 C 10.882812 -2.367188 11.078125 -2.117188 11.078125 -1.703125 L 11.078125 0.046875 Z M 1.390625 0.046875 "/></g></g></g><g fill="#000000" fill-opacity="1"><g transform="translate(108.569769, 37.240496)"><g><path d="M 1.390625 0.046875 L 1.390625 -1.703125 C 1.390625 -2.117188 1.585938 -2.367188 1.984375 -2.453125 L 4.3125 -2.921875 L 4.3125 -26.15625 C 3 -26.394531 2.222656 -26.550781 1.984375 -26.625 C 1.585938 -26.707031 1.390625 -26.96875 1.390625 -27.40625 L 1.390625 -29.15625 L 6.34375 -29.15625 C 6.695312 -29.15625 6.957031 -29.117188 7.125 -29.046875 C 7.25 -28.972656 7.453125 -28.796875 7.734375 -28.515625 L 24.609375 -6.53125 L 24.609375 -6.4375 C 24.554688 -6.820312 24.53125 -7.5 24.53125 -8.46875 L 24.53125 -26.15625 C 24.0625 -26.21875 23.625 -26.285156 23.21875 -26.359375 C 22.8125 -26.429688 22.484375 -26.492188 22.234375 -26.546875 C 21.992188 -26.597656 21.863281 -26.625 21.84375 -26.625 C 21.40625 -26.71875 21.1875 -26.96875 21.1875 -27.375 L 21.1875 -29.15625 L 30.953125 -29.15625 L 30.953125 -27.375 C 30.953125 -26.957031 30.738281 -26.707031 30.3125 -26.625 L 27.984375 -26.15625 L 27.984375 0.046875 L 26 0.046875 C 25.4375 0.046875 24.972656 -0.1875 24.609375 -0.65625 L 7.703125 -22.65625 C 7.753906 -22.1875 7.78125 -21.554688 7.78125 -20.765625 L 7.78125 -2.921875 C 8.613281 -2.804688 9.519531 -2.648438 10.5 -2.453125 C 10.882812 -2.367188 11.078125 -2.117188 11.078125 -1.703125 L 11.078125 0.046875 Z M 1.390625 0.046875 "/></g></g></g><g fill="#000000" fill-opacity="1"><g transform="translate(145.708414, 37.240496)"><g><path d="M 1.390625 0 L 1.390625 -1.703125 C 1.390625 -2.140625 1.585938 -2.398438 1.984375 -2.484375 L 4.3125 -2.921875 L 4.3125 -26.1875 C 3 -26.425781 2.222656 -26.585938 1.984375 -26.671875 C 1.585938 -26.753906 1.390625 -27.015625 1.390625 -27.453125 L 1.390625 -29.15625 L 22.3125 -29.15625 L 22.3125 -22.125 L 20.375 -22.125 C 19.875 -22.125 19.585938 -22.351562 19.515625 -22.8125 C 19.515625 -22.84375 19.503906 -22.972656 19.484375 -23.203125 C 19.460938 -23.441406 19.425781 -23.820312 19.375 -24.34375 C 19.320312 -24.863281 19.273438 -25.398438 19.234375 -25.953125 L 8.3125 -25.953125 L 8.3125 -16.25 L 19.046875 -16.25 L 19.046875 -13.171875 L 8.3125 -13.171875 L 8.3125 -3.1875 L 19.234375 -3.1875 C 19.390625 -4.976562 19.46875 -5.953125 19.46875 -6.109375 C 19.539062 -6.546875 19.84375 -6.765625 20.375 -6.765625 L 22.3125 -6.765625 L 22.3125 0 Z M 1.390625 0 "/></g></g></g><g fill="#000000" fill-opacity="1"><g transform="translate(175.15229, 37.240496)"><g><path d="M 0.890625 -14.578125 C 0.890625 -18.953125 2.25 -22.539062 4.96875 -25.34375 C 7.664062 -28.113281 11.28125 -29.5 15.8125 -29.5 L 15.734375 -29.53125 C 18.054688 -29.53125 21.066406 -28.835938 24.765625 -27.453125 L 24.765625 -20.609375 L 22.8125 -20.609375 C 22.289062 -20.609375 21.992188 -20.851562 21.921875 -21.34375 C 21.890625 -21.425781 21.835938 -22.035156 21.765625 -23.171875 C 21.734375 -23.472656 21.703125 -23.765625 21.671875 -24.046875 C 21.648438 -24.335938 21.628906 -24.554688 21.609375 -24.703125 C 21.585938 -24.859375 21.578125 -24.957031 21.578125 -25 C 19.328125 -25.71875 17.28125 -26.078125 15.4375 -26.078125 C 12.332031 -26.078125 9.804688 -25.054688 7.859375 -23.015625 C 5.878906 -20.878906 4.890625 -18.066406 4.890625 -14.578125 C 4.890625 -11.035156 5.863281 -8.210938 7.8125 -6.109375 C 9.65625 -4.109375 12.0625 -3.109375 15.03125 -3.109375 C 16.707031 -3.109375 17.992188 -3.265625 18.890625 -3.578125 C 20.335938 -4.117188 21.53125 -4.828125 22.46875 -5.703125 C 22.726562 -5.921875 22.945312 -6.03125 23.125 -6.03125 C 23.40625 -6.03125 23.625 -5.945312 23.78125 -5.78125 L 25.34375 -4.078125 C 22.8125 -1.148438 19.300781 0.3125 14.8125 0.3125 C 10.625 0.3125 7.265625 -1.070312 4.734375 -3.84375 C 2.171875 -6.632812 0.890625 -10.210938 0.890625 -14.578125 Z M 0.890625 -14.578125 "/></g></g></g><g fill="#000000" fill-opacity="1"><g transform="translate(206.544713, 37.240496)"><g><path d="M 0.890625 -22.734375 L 0.890625 -29.15625 L 24.921875 -29.15625 L 24.921875 -22.734375 L 22.9375 -22.734375 C 22.5 -22.734375 22.238281 -22.863281 22.15625 -23.125 C 22.019531 -23.582031 21.890625 -24.476562 21.765625 -25.8125 L 14.921875 -25.8125 L 14.921875 -2.921875 C 15.023438 -2.921875 15.179688 -2.894531 15.390625 -2.84375 C 16.679688 -2.601562 17.363281 -2.472656 17.4375 -2.453125 C 17.707031 -2.367188 17.84375 -2.117188 17.84375 -1.703125 L 17.84375 0 L 7.96875 0 L 7.96875 -1.703125 C 7.96875 -2.171875 8.203125 -2.445312 8.671875 -2.53125 C 8.804688 -2.550781 9.117188 -2.613281 9.609375 -2.71875 C 10.097656 -2.832031 10.535156 -2.921875 10.921875 -2.984375 L 10.921875 -25.859375 L 4.03125 -25.859375 C 3.882812 -24.398438 3.757812 -23.488281 3.65625 -23.125 C 3.582031 -22.863281 3.3125 -22.734375 2.84375 -22.734375 Z M 0.890625 -22.734375 "/></g></g></g></g></g><path fill="#5271ff" d="M 886.769531 515.203125 C 902.160156 528.136719 904.152344 551.097656 891.21875 566.488281 C 878.289062 581.882812 855.324219 583.875 839.933594 570.941406 C 824.542969 558.007812 822.546875 535.046875 835.484375 519.65625 C 848.414062 504.261719 871.375 502.269531 886.769531 515.203125 " fill-opacity="1" fill-rule="nonzero"/><path fill="#5271ff" d="M 929.121094 552.246094 C 929.570312 553.191406 929.464844 554.355469 928.746094 555.207031 C 928.027344 556.0625 926.902344 556.367188 925.890625 556.085938 L 925.636719 556.394531 L 917.59375 573.667969 L 908.253906 565.816406 L 923.882812 554.921875 L 924.140625 554.617188 C 923.6875 553.667969 923.792969 552.507812 924.515625 551.652344 C 925.230469 550.796875 926.359375 550.492188 927.371094 550.773438 L 940.535156 535.101562 L 931.066406 518.175781 L 935.632812 533.460938 L 924.792969 529.832031 L 907.824219 550.035156 C 910.152344 534.980469 904.804688 519.097656 892.316406 508.605469 C 880.035156 498.285156 863.816406 495.675781 849.558594 500.238281 L 866.121094 480.53125 L 852.851562 456.019531 L 917.738281 478.664062 L 951.226562 538.675781 L 942.871094 535.878906 L 929.121094 552.246094 " fill-opacity="1" fill-rule="nonzero"/><g clip-path="url(#a4d1a69585)"><path fill="#5271ff" d="M 838.230469 851.785156 C 838.230469 851.785156 780.3125 835.878906 779.867188 730.566406 C 779.675781 685.636719 787.710938 649.75 773.6875 584.648438 C 759.660156 519.546875 750.265625 477.402344 757.417969 438.734375 C 757.417969 438.734375 770.308594 524.871094 838.230469 565.566406 C 923.5625 616.691406 960.578125 672.195312 958.332031 738.421875 C 958.332031 738.421875 931.664062 672.390625 870.355469 655.148438 C 870.355469 655.148438 865.558594 840.5625 980.78125 921.378906 C 980.78125 921.378906 882.492188 904.210938 819.148438 746.277344 C 819.148438 746.277344 810.171875 820.359375 838.230469 851.785156 " fill-opacity="1" fill-rule="nonzero"/></g><path fill="#be1e2d" d="M 613.21875 515.203125 C 597.832031 528.136719 595.835938 551.097656 608.769531 566.488281 C 621.699219 581.882812 644.664062 583.875 660.054688 570.941406 C 675.445312 558.007812 677.441406 535.046875 664.507812 519.65625 C 651.574219 504.261719 628.613281 502.269531 613.21875 515.203125 " fill-opacity="1" fill-rule="nonzero"/><path fill="#be1e2d" d="M 570.871094 552.246094 C 570.417969 553.191406 570.527344 554.355469 571.246094 555.207031 C 571.960938 556.0625 573.089844 556.367188 574.101562 556.085938 L 574.355469 556.394531 L 582.394531 573.667969 L 591.738281 565.816406 L 576.109375 554.921875 L 575.851562 554.617188 C 576.300781 553.667969 576.195312 552.507812 575.476562 551.652344 C 574.757812 550.796875 573.632812 550.492188 572.621094 550.773438 L 559.453125 535.101562 L 568.921875 518.175781 L 564.359375 533.460938 L 575.199219 529.832031 L 592.167969 550.035156 C 589.839844 534.980469 595.1875 519.097656 607.675781 508.605469 C 619.957031 498.285156 636.175781 495.675781 650.429688 500.238281 L 633.871094 480.53125 L 647.136719 456.019531 L 582.253906 478.664062 L 548.761719 538.675781 L 557.121094 535.878906 L 570.871094 552.246094 " fill-opacity="1" fill-rule="nonzero"/><g clip-path="url(#ecb9ed47df)"><path fill="#be1e2d" d="M 661.757812 851.785156 C 661.757812 851.785156 719.675781 835.878906 720.125 730.566406 C 720.316406 685.636719 712.277344 649.75 726.300781 584.648438 C 740.328125 519.546875 749.722656 477.402344 742.574219 438.734375 C 742.574219 438.734375 729.683594 524.871094 661.757812 565.566406 C 576.429688 616.691406 539.414062 672.195312 541.65625 738.421875 C 541.65625 738.421875 568.324219 672.390625 629.632812 655.148438 C 629.632812 655.148438 634.433594 840.5625 519.210938 921.378906 C 519.210938 921.378906 617.496094 904.210938 680.839844 746.277344 C 680.839844 746.277344 689.820312 820.359375 661.757812 851.785156 " fill-opacity="1" fill-rule="nonzero"/></g><g clip-path="url(#06e1628dc0)"><path fill="#f6921e" d="M 748.441406 421.5 L 749.753906 430.097656 L 750.917969 421.480469 C 753.195312 404.589844 766.335938 391.222656 783.183594 388.652344 L 791.777344 387.34375 L 783.160156 386.175781 C 766.273438 383.898438 752.90625 370.761719 750.335938 353.910156 L 749.023438 345.316406 L 747.859375 353.933594 C 745.582031 370.824219 732.441406 384.191406 715.59375 386.761719 L 707 388.070312 L 715.617188 389.234375 C 732.503906 391.515625 745.871094 404.652344 748.441406 421.5 " fill-opacity="1" fill-rule="nonzero"/></g></svg>